{
  "accessors": [
    {
      "bufferView": 2,
      "componentType": 5126,
      "count": 130,
      "max": [
        0.15743471682071686,
        0.3218163549900055,
        0.030995748937129974
      ],
      "min": [
        -0.15743471682071686,
        -0.3218163549900055,
        0.00025040656328201294
      ],
      "type": "VEC3"
    },
    {
      "bufferView": 2,
      "byteOffset": 1560,
      "componentType": 5126,
      "count": 130,
      "max": [
        1.0,
        1.0,
        1.0
      ],
      "min": [
        -1.0,
        -1.0,
        -1.0
      ],
      "type": "VEC3"
    },
    {
      "bufferView": 3,
      "componentType": 5126,
      "count": 130,
      "max": [
        0.707124650478363,
        1.0,
        1.0,
        1.0
      ],
      "min": [
        -0.7071236371994019,
        -0.7071254849433899,
        -1.0,
        1.0
      ],
      "type": "VEC4"
    },
    {
      "bufferView": 1,
      "componentType": 5126,
      "count": 130,
      "max": [
        0.9950792789459229,
        0.9889351725578308
      ],
      "min": [
        0.005954018794000149,
        0.019545862451195717
      ],
      "type": "VEC2"
    },
    {
      "bufferView": 0,
      "componentType": 5125,
      "count": 324,
      "type": "SCALAR"
    },
    {
      "bufferView": 2,
      "byteOffset": 3120,
      "componentType": 5126,
      "count": 684,
      "max": [
        3.653498411178589,
        16.982542037963867,
        14.53781509399414
      ],
      "min": [
        -3.653499126434326,
        -4.863505864705076e-07,
        7.2308173179626465
      ],
      "type": "VEC3"
    },
    {
      "bufferView": 2,
      "byteOffset": 11328,
      "componentType": 5126,
      "count": 684,
      "max": [
        1.0,
        1.0,
        1.0
      ],
      "min": [
        -1.0,
        -1.0,
        -1.0
      ],
      "type": "VEC3"
    },
    {
      "bufferView": 1,
      "byteOffset": 1040,
      "componentType": 5126,
      "count": 684,
      "max": [
        0.9962915778160095,
        0.9984419345855713
      ],
      "min": [
        0.4858468174934387,
        0.014490111730992794
      ],
      "type": "VEC2"
    },
    {
      "bufferView": 0,
      "byteOffset": 1296,
      "componentType": 5125,
      "count": 3444,
      "type": "SCALAR"
    },
    {
      "bufferView": 2,
      "byteOffset": 19536,
      "componentType": 5126,
      "count": 684,
      "max": [
        5.857935905456543,
        27.229419708251953,
        5.857935905456543
      ],
      "min": [
        -5.857936859130859,
        -7.798034289407951e-07,
        -5.857937335968018
      ],
      "type": "VEC3"
    },
    {
      "bufferView": 2,
      "byteOffset": 27744,
      "componentType": 5126,
      "count": 684,
      "max": [
        1.0,
        1.0,
        1.0
      ],
      "min": [
        -1.0,
        -1.0,
        -1.0
      ],
      "type": "VEC3"
    },
    {
      "bufferView": 1,
      "byteOffset": 6512,
      "componentType": 5126,
      "count": 684,
      "max": [
        0.9947413802146912,
        0.9984419345855713
      ],
      "min": [
        0.007329890038818121,
        0.0710187703371048
      ],
      "type": "VEC2"
    },
    {
      "bufferView": 0,
      "byteOffset": 15072,
      "componentType": 5125,
      "count": 3444,
      "type": "SCALAR"
    },
    {
      "bufferView": 2,
      "byteOffset": 35952,
      "componentType": 5126,
      "count": 684,
      "max": [
        8.501861572265625,
        39.5191650390625,
        -6.472440719604492
      ],
      "min": [
        -8.501862525939941,
        -1.1317605412841658e-06,
        -23.476165771484375
      ],
      "type": "VEC3"
    },
    {
      "bufferView": 2,
      "byteOffset": 44160,
      "componentType": 5126,
      "count": 684,
      "max": [
        1.0,
        1.0,
        1.0
      ],
      "min": [
        -1.0,
        -1.0,
        -1.0
      ],
      "type": "VEC3"
    },
    {
      "bufferView": 1,
      "byteOffset": 11984,
      "componentType": 5126,
      "count": 684,
      "max": [
        0.9965869784355164,
        0.9984419345855713
      ],
      "min": [
        0.01206604577600956,
        0.07362839579582214
      ],
      "type": "VEC2"
    },
    {
      "bufferView": 0,
      "byteOffset": 28848,
      "componentType": 5125,
      "count": 3444,
      "type": "SCALAR"
    }
  ],
  "asset": {
    "extras": {
      "author": "cesar.seidel (https://sketchfab.com/cesar.seidel)",
      "license": "CC-BY-4.0 (http://creativecommons.org/licenses/by/4.0/)",
      "source": "https://sketchfab.com/3d-models/graduated-cylinders-e0a1a66e2d104e4fb5b410ea84cd6b6f",
      "title": "Graduated Cylinders"
    },
    "generator": "Sketchfab-12.68.0",
    "version": "2.0"
  },
  "bufferViews": [
    {
      "buffer": 0,
      "byteLength": 42624,
      "name": "floatBufferViews",
      "target": 34963
    },
    {
      "buffer": 0,
      "byteLength": 17456,
      "byteOffset": 42624,
      "byteStride": 8,
      "name": "floatBufferViews",
      "target": 34962
    },
    {
      "buffer": 0,
      "byteLength": 52368,
      "byteOffset": 60080,
      "byteStride": 12,
      "name": "floatBufferViews",
      "target": 34962
    },
    {
      "buffer": 0,
      "byteLength": 2080,
      "byteOffset": 112448,
      "byteStride": 16,
      "name": "floatBufferViews",
      "target": 34962
    }
  ],
  "buffers": [
    {
      "byteLength": 114528,
      "uri": "scene.bin"
    }
  ],
  "extensionsUsed": [
    "KHR_materials_transmission"
  ],
  "images": [
    {
      "uri": "textures/Granite_MAT_baseColor.png"
    },
    {
      "uri": "textures/Granite_MAT_metallicRoughness.png"
    },
    {
      "uri": "textures/Granite_MAT_normal.png"
    },
    {
      "uri": "textures/Glass_MAT_baseColor.png"
    },
    {
      "uri": "textures/Glass_MAT_metallicRoughness.png"
    },
    {
      "uri": "textures/Glass_MAT_transmission.png"
    }
  ],
  "materials": [
    {
      "doubleSided": true,
      "name": "Granite_MAT",
      "normalTexture": {
        "index": 2
      },
      "occlusionTexture": {
        "index": 1
      },
      "pbrMetallicRoughness": {
        "baseColorTexture": {
          "index": 0
        },
        "metallicFactor": 0.0,
        "metallicRoughnessTexture": {
          "index": 1
        }
      }
    },
    {
      "alphaMode": "BLEND",
      "doubleSided": true,
      "extensions": {
        "KHR_materials_transmission": {
          "transmissionFactor": 1.0,
          "transmissionTexture": {
            "index": 5
          }
        }
      },
      "name": "Glass_MAT",
      "occlusionTexture": {
        "index": 4
      },
      "pbrMetallicRoughness": {
        "baseColorTexture": {
          "index": 3
        },
        "metallicFactor": 0.0,
        "metallicRoughnessTexture": {
          "index": 4
        }
      }
    }
  ],
  "meshes": [
    {
      "name": "Granite_Granite_MAT_0",
      "primitives": [
        {
          "attributes": {
            "NORMAL": 1,
            "POSITION": 0,
            "TANGENT": 2,
            "TEXCOORD_0": 3
          },
          "indices": 4,
          "material": 0,
          "mode": 4
        }
      ]
    },
    {
      "name": "GraduatedCylinder_100mL_Glass_MAT_0",
      "primitives": [
        {
          "attributes": {
            "NORMAL": 6,
            "POSITION": 5,
            "TEXCOORD_0": 7
          },
          "indices": 8,
          "material": 1,
          "mode": 4
        }
      ]
    },
    {
      "name": "GraduatedCylinder_250mL_Glass_MAT_0",
      "primitives": [
        {
          "attributes": {
            "NORMAL": 10,
            "POSITION": 9,
            "TEXCOORD_0": 11
          },
          "indices": 12,
          "material": 1,
          "mode": 4
        }
      ]
    },
    {
      "name": "GraduatedCylinder_500mL_Glass_MAT_0",
      "primitives": [
        {
          "attributes": {
            "NORMAL": 14,
            "POSITION": 13,
            "TEXCOORD_0": 15
          },
          "indices": 16,
          "material": 1,
          "mode": 4
        }
      ]
    }
  ],
  "nodes": [
    {
      "children": [
        1
      ],
      "matrix": [
        1.0,
        0.0,
        0.0,
        0.0,
        0.0,
        2.220446049250313e-16,
        -1.0,
        0.0,
        0.0,
        1.0,
        2.220446049250313e-16,
        0.0,
        0.0,
        0.0,
        0.0,
        1.0
      ],
      "name": "Sketchfab_model"
    },
    {
      "children": [
        2
      ],
      "matrix": [
        0.009999999776482582,
        0.0,
        0.0,
        0.0,
        0.0,
        0.0,
        0.009999999776482582,
        0.0,
        0.0,
        -0.009999999776482582,
        0.0,
        0.0,
        0.0,
        0.0,
        0.0,
        1.0
      ],
      "name": "d2b64fd0a72948e78880d1ebb620a844.fbx"
    },
    {
      "children": [
        3,
        5
      ],
      "name": "RootNode"
    },
    {
      "children": [
        4
      ],
      "matrix": [
        100.0,
        0.0,
        0.0,
        0.0,
        0.0,
        -1.629206793918314e-05,
        -99.99999999999868,
        0.0,
        0.0,
        99.99999999999868,
        -1.629206793918314e-05,
        0.0,
        0.0,
        0.0,
        0.0,
        1.0
      ],
      "name": "Granite"
    },
    {
      "mesh": 0,
      "name": "Granite_Granite_MAT_0"
    },
    {
      "children": [
        6,
        8,
        10
      ],
      "matrix": [
        1.0,
        0.0,
        0.0,
        0.0,
        0.0,
        0.9999999999999867,
        1.6292067073209113e-07,
        0.0,
        0.0,
        -1.6292067073209113e-07,
        0.9999999999999867,
        0.0,
        0.0,
        3.0627737045288086,
        0.0,
        1.0
      ],
      "name": "GraduatedCylinders"
    },
    {
      "children": [
        7
      ],
      "matrix": [
        1.0,
        0.0,
        0.0,
        0.0,
        0.0,
        1.0,
        1.421085474167178e-14,
        0.0,
        0.0,
        -1.421085474167178e-14,
        1.0,
        0.0,
        0.0,
        1.5367652395070763e-06,
        7.969196319580078,
        1.0
      ],
      "name": "GraduatedCylinder_100mL"
    },
    {
      "mesh": 1,
      "name": "GraduatedCylinder_100mL_Glass_MAT_0"
    },
    {
      "children": [
        9
      ],
      "matrix": [
        1.0,
        0.0,
        0.0,
        0.0,
        0.0,
        1.0,
        1.421085474167178e-14,
        0.0,
        0.0,
        -1.421085474167178e-14,
        1.0,
        0.0,
        0.0,
        6.361610758176539e-07,
        2.44132661819458,
        1.0
      ],
      "name": "GraduatedCylinder_250mL"
    },
    {
      "mesh": 2,
      "name": "GraduatedCylinder_250mL_Glass_MAT_0"
    },
    {
      "children": [
        11
      ],
      "matrix": [
        1.0,
        0.0,
        0.0,
        0.0,
        0.0,
        1.0,
        1.421085474167178e-14,
        0.0,
        0.0,
        -1.421085474167178e-14,
        1.0,
        0.0,
        0.0,
        -2.803703864628915e-07,
        -3.1843044757843018,
        1.0
      ],
      "name": "GraduatedCylinder_500mL"
    },
    {
      "mesh": 3,
      "name": "GraduatedCylinder_500mL_Glass_MAT_0"
    }
  ],
  "samplers": [
    {
      "magFilter": 9729,
      "minFilter": 9987,
      "wrapS": 10497,
      "wrapT": 10497
    }
  ],
  "scene": 0,
  "scenes": [
    {
      "name": "Sketchfab_Scene",
      "nodes": [
        0
      ]
    }
  ],
  "textures": [
    {
      "sampler": 0,
      "source": 0
    },
    {
      "sampler": 0,
      "source": 1
    },
    {
      "sampler": 0,
      "source": 2
    },
    {
      "sampler": 0,
      "source": 3
    },
    {
      "sampler": 0,
      "source": 4
    },
    {
      "sampler": 0,
      "source": 5
    }
  ]
}
