{
  "accessors": [
    {
      "bufferView": 2,
      "componentType": 5126,
      "count": 65532,
      "max": [
        3.9047703742980957,
        1.4048376083374023,
        9.687346458435059
      ],
      "min": [
        -3.9047703742980957,
        0.004837643355131149,
        -9.087342262268066
      ],
      "type": "VEC3"
    },
    {
      "bufferView": 2,
      "byteOffset": 786384,
      "componentType": 5126,
      "count": 65532,
      "max": [
        0.9999784231185913,
        0.9997667670249939,
        0.999982476234436
      ],
      "min": [
        -0.9999790191650391,
        -1.0,
        -0.9999828338623047
      ],
      "type": "VEC3"
    },
    {
      "bufferView": 3,
      "componentType": 5126,
      "count": 65532,
      "max": [
        1.0,
        0.9999935626983643,
        0.990117609500885,
        1.0
      ],
      "min": [
        -1.0,
        -1.0,
        -0.996948778629303,
        -1.0
      ],
      "type": "VEC4"
    },
    {
      "bufferView": 1,
      "componentType": 5126,
      "count": 65532,
      "max": [
        0.9997681379318237,
        0.9688583016395569
      ],
      "min": [
        0.0002626657369546592,
        0.0002349514834349975
      ],
      "type": "VEC2"
    },
    {
      "bufferView": 0,
      "componentType": 5125,
      "count": 283056,
      "type": "SCALAR"
    },
    {
      "bufferView": 2,
      "byteOffset": 1572768,
      "componentType": 5126,
      "count": 34067,
      "max": [
        3.9046101570129395,
        1.4048374891281128,
        9.687346458435059
      ],
      "min": [
        -3.904759168624878,
        0.004837643820792437,
        -9.08730697631836
      ],
      "type": "VEC3"
    },
    {
      "bufferView": 2,
      "byteOffset": 1981572,
      "componentType": 5126,
      "count": 34067,
      "max": [
        0.9999757409095764,
        0.9997476935386658,
        0.9999793171882629
      ],
      "min": [
        -0.9999781250953674,
        -1.0,
        -0.9999828338623047
      ],
      "type": "VEC3"
    },
    {
      "bufferView": 3,
      "byteOffset": 1048512,
      "componentType": 5126,
      "count": 34067,
      "max": [
        0.9999982118606567,
        0.9999992847442627,
        0.990117609500885,
        1.0
      ],
      "min": [
        -0.9999942779541016,
        -0.9999999403953552,
        -0.996948778629303,
        -1.0
      ],
      "type": "VEC4"
    },
    {
      "bufferView": 1,
      "byteOffset": 524256,
      "componentType": 5126,
      "count": 34067,
      "max": [
        0.9997502565383911,
        0.9688771963119507
      ],
      "min": [
        0.0002636808785609901,
        0.00025169079890474677
      ],
      "type": "VEC2"
    },
    {
      "bufferView": 0,
      "byteOffset": 1132224,
      "componentType": 5125,
      "count": 76350,
      "type": "SCALAR"
    },
    {
      "bufferView": 2,
      "byteOffset": 2390376,
      "componentType": 5126,
      "count": 6288,
      "max": [
        0.2841835916042328,
        13.652278900146484,
        -7.056557655334473
      ],
      "min": [
        -0.22036242485046387,
        13.147730827331543,
        -7.188043594360352
      ],
      "type": "VEC3"
    },
    {
      "bufferView": 2,
      "byteOffset": 2465832,
      "componentType": 5126,
      "count": 6288,
      "max": [
        1.0,
        1.0,
        1.0
      ],
      "min": [
        -1.0,
        -1.0,
        -1.0
      ],
      "type": "VEC3"
    },
    {
      "bufferView": 1,
      "byteOffset": 796792,
      "componentType": 5126,
      "count": 6288,
      "max": [
        0.9894443154335022,
        0.9994729161262512
      ],
      "min": [
        0.0005276600131765008,
        0.0005276600131765008
      ],
      "type": "VEC2"
    },
    {
      "bufferView": 0,
      "byteOffset": 1437624,
      "componentType": 5125,
      "count": 30720,
      "type": "SCALAR"
    },
    {
      "bufferView": 2,
      "byteOffset": 2541288,
      "componentType": 5126,
      "count": 6288,
      "max": [
        0.2841835916042328,
        21.652278900146484,
        -7.056557655334473
      ],
      "min": [
        -0.22036242485046387,
        21.14773178100586,
        -7.188043594360352
      ],
      "type": "VEC3"
    },
    {
      "bufferView": 2,
      "byteOffset": 2616744,
      "componentType": 5126,
      "count": 6288,
      "max": [
        1.0,
        1.0,
        1.0
      ],
      "min": [
        -1.0,
        -1.0,
        -1.0
      ],
      "type": "VEC3"
    },
    {
      "bufferView": 1,
      "byteOffset": 847096,
      "componentType": 5126,
      "count": 6288,
      "max": [
        0.9921649694442749,
        0.9994726777076721
      ],
      "min": [
        0.0005276513402350247,
        0.0005273648421280086
      ],
      "type": "VEC2"
    },
    {
      "bufferView": 0,
      "byteOffset": 1560504,
      "componentType": 5125,
      "count": 30720,
      "type": "SCALAR"
    },
    {
      "bufferView": 2,
      "byteOffset": 2692200,
      "componentType": 5126,
      "count": 136,
      "max": [
        0.24000000953674316,
        25.399995803833008,
        -5.460000514984131
      ],
      "min": [
        -0.23999997973442078,
        1.3999974727630615,
        -5.940000534057617
      ],
      "type": "VEC3"
    },
    {
      "bufferView": 2,
      "byteOffset": 2693832,
      "componentType": 5126,
      "count": 136,
      "max": [
        1.0,
        1.0,
        1.0
      ],
      "min": [
        -1.0,
        -1.0,
        -1.0
      ],
      "type": "VEC3"
    },
    {
      "bufferView": 3,
      "byteOffset": 1593584,
      "componentType": 5126,
      "count": 136,
      "max": [
        1.0,
        0.0,
        1.0,
        1.0
      ],
      "min": [
        -1.0,
        -2.639336798893055e-06,
        -1.0,
        1.0
      ],
      "type": "VEC4"
    },
    {
      "bufferView": 1,
      "byteOffset": 897400,
      "componentType": 5126,
      "count": 136,
      "max": [
        0.07665462791919708,
        0.9999486207962036
      ],
      "min": [
        5.139378481544554e-05,
        5.139126005815342e-05
      ],
      "type": "VEC2"
    },
    {
      "bufferView": 0,
      "byteOffset": 1683384,
      "componentType": 5125,
      "count": 372,
      "type": "SCALAR"
    },
    {
      "bufferView": 2,
      "byteOffset": 2695464,
      "componentType": 5126,
      "count": 2240,
      "max": [
        1.9947657585144043,
        22.306119918823242,
        1.4693098068237305
      ],
      "min": [
        -1.9866671562194824,
        20.49388885498047,
        -6.910466194152832
      ],
      "type": "VEC3"
    },
    {
      "bufferView": 2,
      "byteOffset": 2722344,
      "componentType": 5126,
      "count": 2240,
      "max": [
        1.0,
        1.0,
        1.0
      ],
      "min": [
        -1.0,
        -1.0,
        -1.0
      ],
      "type": "VEC3"
    },
    {
      "bufferView": 3,
      "byteOffset": 1595760,
      "componentType": 5126,
      "count": 2240,
      "max": [
        1.0,
        1.0,
        1.0,
        1.0
      ],
      "min": [
        -1.0,
        -0.9999982118606567,
        -1.0,
        -1.0
      ],
      "type": "VEC4"
    },
    {
      "bufferView": 1,
      "byteOffset": 898488,
      "componentType": 5126,
      "count": 2240,
      "max": [
        0.9868303537368774,
        0.9996206164360046
      ],
      "min": [
        0.00037919962778687477,
        0.00037917919689789414
      ],
      "type": "VEC2"
    },
    {
      "bufferView": 0,
      "byteOffset": 1684872,
      "componentType": 5125,
      "count": 9060,
      "type": "SCALAR"
    },
    {
      "bufferView": 2,
      "byteOffset": 2749224,
      "componentType": 5126,
      "count": 250,
      "max": [
        0.13191059231758118,
        13.500003814697266,
        -5.940413475036621
      ],
      "min": [
        -0.06808945536613464,
        13.300003051757813,
        -7.056466102600098
      ],
      "type": "VEC3"
    },
    {
      "bufferView": 2,
      "byteOffset": 2752224,
      "componentType": 5126,
      "count": 250,
      "max": [
        1.0,
        1.0,
        0.9861598014831543
      ],
      "min": [
        -1.0,
        -1.0,
        -1.0
      ],
      "type": "VEC3"
    },
    {
      "bufferView": 3,
      "byteOffset": 1631600,
      "componentType": 5126,
      "count": 250,
      "max": [
        0.7048435211181641,
        0.9569404721260071,
        0.8470709323883057,
        1.0
      ],
      "min": [
        -0.9999720454216003,
        -0.9999720454216003,
        -0.7828130125999451,
        1.0
      ],
      "type": "VEC4"
    },
    {
      "bufferView": 1,
      "byteOffset": 916408,
      "componentType": 5126,
      "count": 250,
      "max": [
        0.6877137422561646,
        0.999823272228241
      ],
      "min": [
        0.00017695504357106984,
        0.0001770139642758295
      ],
      "type": "VEC2"
    },
    {
      "bufferView": 0,
      "byteOffset": 1721112,
      "componentType": 5125,
      "count": 948,
      "type": "SCALAR"
    },
    {
      "bufferView": 2,
      "byteOffset": 2755224,
      "componentType": 5126,
      "count": 245,
      "max": [
        0.13191059231758118,
        21.500003814697266,
        -5.940413475036621
      ],
      "min": [
        -0.06808945536613464,
        21.300003051757813,
        -7.056466102600098
      ],
      "type": "VEC3"
    },
    {
      "bufferView": 2,
      "byteOffset": 2758164,
      "componentType": 5126,
      "count": 245,
      "max": [
        0.9941641688346863,
        0.9941691756248474,
        0.9861624836921692
      ],
      "min": [
        -0.994164228439331,
        -0.9941691756248474,
        -0.6857076287269592
      ],
      "type": "VEC3"
    },
    {
      "bufferView": 3,
      "byteOffset": 1635600,
      "componentType": 5126,
      "count": 245,
      "max": [
        0.7026857137680054,
        0.999944806098938,
        0.7827844619750977,
        1.0
      ],
      "min": [
        -0.9999446272850037,
        -0.9999380111694336,
        -0.8470694422721863,
        1.0
      ],
      "type": "VEC4"
    },
    {
      "bufferView": 1,
      "byteOffset": 918408,
      "componentType": 5126,
      "count": 245,
      "max": [
        0.7126985192298889,
        0.9998190402984619
      ],
      "min": [
        0.00018089657532982528,
        0.00017948397726286203
      ],
      "type": "VEC2"
    },
    {
      "bufferView": 0,
      "byteOffset": 1724904,
      "componentType": 5125,
      "count": 948,
      "type": "SCALAR"
    },
    {
      "bufferView": 2,
      "byteOffset": 2761104,
      "componentType": 5126,
      "count": 2203,
      "max": [
        1.9947657585144043,
        14.306120872497559,
        1.4693098068237305
      ],
      "min": [
        -1.9866671562194824,
        12.493888854980469,
        -6.910466194152832
      ],
      "type": "VEC3"
    },
    {
      "bufferView": 2,
      "byteOffset": 2787540,
      "componentType": 5126,
      "count": 2203,
      "max": [
        1.0,
        1.0,
        1.0
      ],
      "min": [
        -1.0,
        -1.0,
        -1.0
      ],
      "type": "VEC3"
    },
    {
      "bufferView": 3,
      "byteOffset": 1639520,
      "componentType": 5126,
      "count": 2203,
      "max": [
        1.0,
        1.0,
        1.0,
        1.0
      ],
      "min": [
        -1.0,
        -0.9999982118606567,
        -1.0,
        -1.0
      ],
      "type": "VEC4"
    },
    {
      "bufferView": 1,
      "byteOffset": 920368,
      "componentType": 5126,
      "count": 2203,
      "max": [
        0.9869124889373779,
        0.999620795249939
      ],
      "min": [
        0.0003791975323110819,
        0.000379164150217548
      ],
      "type": "VEC2"
    },
    {
      "bufferView": 0,
      "byteOffset": 1728696,
      "componentType": 5125,
      "count": 9060,
      "type": "SCALAR"
    }
  ],
  "asset": {
    "extras": {
      "author": "3dLabWare (https://sketchfab.com/3dlabwaremodels)",
      "license": "CC-BY-4.0 (http://creativecommons.org/licenses/by/4.0/)",
      "source": "https://sketchfab.com/3d-models/universal-support-8f78057785f447e5a44758464a8186c0",
      "title": "Universal Support"
    },
    "generator": "Sketchfab-15.47.0",
    "version": "2.0"
  },
  "bufferViews": [
    {
      "buffer": 0,
      "byteLength": 1764936,
      "name": "floatBufferViews",
      "target": 34963
    },
    {
      "buffer": 0,
      "byteLength": 937992,
      "byteOffset": 1764936,
      "byteStride": 8,
      "name": "floatBufferViews",
      "target": 34962
    },
    {
      "buffer": 0,
      "byteLength": 2813976,
      "byteOffset": 2702928,
      "byteStride": 12,
      "name": "floatBufferViews",
      "target": 34962
    },
    {
      "buffer": 0,
      "byteLength": 1674768,
      "byteOffset": 5516904,
      "byteStride": 16,
      "name": "floatBufferViews",
      "target": 34962
    }
  ],
  "buffers": [
    {
      "byteLength": 7191672,
      "uri": "scene.bin"
    }
  ],
  "images": [
    {
      "uri": "textures/Material_baseColor.jpeg"
    },
    {
      "uri": "textures/Material_metallicRoughness.png"
    },
    {
      "uri": "textures/Material_normal.jpeg"
    },
    {
      "uri": "textures/Handle_baseColor.jpeg"
    },
    {
      "uri": "textures/Handle_metallicRoughness.png"
    },
    {
      "uri": "textures/Material.002_metallicRoughness.png"
    },
    {
      "uri": "textures/Material.002_normal.jpeg"
    }
  ],
  "materials": [
    {
      "doubleSided": true,
      "name": "Material",
      "normalTexture": {
        "index": 2
      },
      "pbrMetallicRoughness": {
        "baseColorTexture": {
          "index": 0
        },
        "metallicFactor": 0.0,
        "metallicRoughnessTexture": {
          "index": 1
        }
      }
    },
    {
      "doubleSided": true,
      "name": "Handle",
      "pbrMetallicRoughness": {
        "baseColorTexture": {
          "index": 3
        },
        "metallicFactor": 0.0,
        "metallicRoughnessTexture": {
          "index": 4
        }
      }
    },
    {
      "doubleSided": true,
      "name": "Material.002",
      "normalTexture": {
        "index": 6
      },
      "pbrMetallicRoughness": {
        "baseColorFactor": [
          0.8,
          0.8,
          0.8,
          1.0
        ],
        "metallicRoughnessTexture": {
          "index": 5
        }
      }
    }
  ],
  "meshes": [
    {
      "name": "Object_0",
      "primitives": [
        {
          "attributes": {
            "NORMAL": 1,
            "POSITION": 0,
            "TANGENT": 2,
            "TEXCOORD_0": 3
          },
          "indices": 4,
          "material": 0,
          "mode": 4
        }
      ]
    },
    {
      "name": "Object_1",
      "primitives": [
        {
          "attributes": {
            "NORMAL": 6,
            "POSITION": 5,
            "TANGENT": 7,
            "TEXCOORD_0": 8
          },
          "indices": 9,
          "material": 0,
          "mode": 4
        }
      ]
    },
    {
      "name": "Object_2",
      "primitives": [
        {
          "attributes": {
            "NORMAL": 11,
            "POSITION": 10,
            "TEXCOORD_0": 12
          },
          "indices": 13,
          "material": 1,
          "mode": 4
        }
      ]
    },
    {
      "name": "Object_3",
      "primitives": [
        {
          "attributes": {
            "NORMAL": 15,
            "POSITION": 14,
            "TEXCOORD_0": 16
          },
          "indices": 17,
          "material": 1,
          "mode": 4
        }
      ]
    },
    {
      "name": "Object_4",
      "primitives": [
        {
          "attributes": {
            "NORMAL": 19,
            "POSITION": 18,
            "TANGENT": 20,
            "TEXCOORD_0": 21
          },
          "indices": 22,
          "material": 2,
          "mode": 4
        }
      ]
    },
    {
      "name": "Object_5",
      "primitives": [
        {
          "attributes": {
            "NORMAL": 24,
            "POSITION": 23,
            "TANGENT": 25,
            "TEXCOORD_0": 26
          },
          "indices": 27,
          "material": 2,
          "mode": 4
        }
      ]
    },
    {
      "name": "Object_6",
      "primitives": [
        {
          "attributes": {
            "NORMAL": 29,
            "POSITION": 28,
            "TANGENT": 30,
            "TEXCOORD_0": 31
          },
          "indices": 32,
          "material": 2,
          "mode": 4
        }
      ]
    },
    {
      "name": "Object_7",
      "primitives": [
        {
          "attributes": {
            "NORMAL": 34,
            "POSITION": 33,
            "TANGENT": 35,
            "TEXCOORD_0": 36
          },
          "indices": 37,
          "material": 2,
          "mode": 4
        }
      ]
    },
    {
      "name": "Object_8",
      "primitives": [
        {
          "attributes": {
            "NORMAL": 39,
            "POSITION": 38,
            "TANGENT": 40,
            "TEXCOORD_0": 41
          },
          "indices": 42,
          "material": 2,
          "mode": 4
        }
      ]
    }
  ],
  "nodes": [
    {
      "children": [
        1
      ],
      "matrix": [
        1.0,
        0.0,
        0.0,
        0.0,
        0.0,
        2.220446049250313e-16,
        -1.0,
        0.0,
        0.0,
        1.0,
        2.220446049250313e-16,
        0.0,
        0.0,
        0.0,
        0.0,
        1.0
      ],
      "name": "Sketchfab_model"
    },
    {
      "children": [
        2
      ],
      "name": "root"
    },
    {
      "children": [
        3
      ],
      "matrix": [
        1.0,
        0.0,
        0.0,
        0.0,
        0.0,
        2.220446049250313e-16,
        1.0,
        0.0,
        0.0,
        -1.0,
        2.220446049250313e-16,
        0.0,
        0.0,
        0.0,
        0.0,
        1.0
      ],
      "name": "GLTF_SceneRootNode"
    },
    {
      "children": [
        4,
        5,
        6,
        8,
        10,
        12,
        14,
        16,
        18
      ],
      "matrix": [
        0.0,
        -0.0,
        -0.07785531878471375,
        0.0,
        0.0,
        0.07785531878471375,
        -0.0,
        0.0,
        0.07785531878471375,
        0.0,
        0.0,
        0.0,
        0.0,
        0.0,
        0.0,
        1.0
      ],
      "name": "Cube.001_7"
    },
    {
      "mesh": 0,
      "name": "Object_4"
    },
    {
      "mesh": 1,
      "name": "Object_5"
    },
    {
      "children": [
        7
      ],
      "name": "Circle_0"
    },
    {
      "mesh": 2,
      "name": "Object_7"
    },
    {
      "children": [
        9
      ],
      "name": "Circle.001_1"
    },
    {
      "mesh": 3,
      "name": "Object_9"
    },
    {
      "children": [
        11
      ],
      "name": "Cylinder_2"
    },
    {
      "mesh": 4,
      "name": "Object_11"
    },
    {
      "children": [
        13
      ],
      "name": "Cylinder.001_3"
    },
    {
      "mesh": 5,
      "name": "Object_13"
    },
    {
      "children": [
        15
      ],
      "name": "Cylinder.002_4"
    },
    {
      "mesh": 6,
      "name": "Object_15"
    },
    {
      "children": [
        17
      ],
      "name": "Cylinder.004_5"
    },
    {
      "mesh": 7,
      "name": "Object_17"
    },
    {
      "children": [
        19
      ],
      "name": "Cylinder.005_6"
    },
    {
      "mesh": 8,
      "name": "Object_19"
    }
  ],
  "samplers": [
    {
      "magFilter": 9729,
      "minFilter": 9987,
      "wrapS": 10497,
      "wrapT": 10497
    }
  ],
  "scene": 0,
  "scenes": [
    {
      "name": "Sketchfab_Scene",
      "nodes": [
        0
      ]
    }
  ],
  "textures": [
    {
      "sampler": 0,
      "source": 0
    },
    {
      "sampler": 0,
      "source": 1
    },
    {
      "sampler": 0,
      "source": 2
    },
    {
      "sampler": 0,
      "source": 3
    },
    {
      "sampler": 0,
      "source": 4
    },
    {
      "sampler": 0,
      "source": 5
    },
    {
      "sampler": 0,
      "source": 6
    }
  ]
}
