{
  "accessors": [
    {
      "bufferView": 1,
      "componentType": 5126,
      "count": 65532,
      "max": [
        46.47355651855469,
        -930.012939453125,
        256.9664001464844
      ],
      "min": [
        -70.57683563232422,
        -987.9340209960938,
        155.51129150390625
      ],
      "type": "VEC3"
    },
    {
      "bufferView": 1,
      "byteOffset": 786384,
      "componentType": 5126,
      "count": 65532,
      "max": [
        0.9995449185371399,
        0.9998641014099121,
        0.999955952167511
      ],
      "min": [
        -1.0,
        -0.9998020529747009,
        -0.9999862909317017
      ],
      "type": "VEC3"
    },
    {
      "bufferView": 0,
      "componentType": 5125,
      "count": 336351,
      "type": "SCALAR"
    },
    {
      "bufferView": 1,
      "byteOffset": 1572768,
      "componentType": 5126,
      "count": 65532,
      "max": [
        74.45561218261719,
        -865.8346557617188,
        287.9156494140625
      ],
      "min": [
        -10.99082088470459,
        -970.9861450195313,
        122.69841003417969
      ],
      "type": "VEC3"
    },
    {
      "bufferView": 1,
      "byteOffset": 2359152,
      "componentType": 5126,
      "count": 65532,
      "max": [
        1.0,
        1.0,
        1.0
      ],
      "min": [
        -0.9999999403953552,
        -1.0,
        -1.0
      ],
      "type": "VEC3"
    },
    {
      "bufferView": 0,
      "byteOffset": 1345404,
      "componentType": 5125,
      "count": 330036,
      "type": "SCALAR"
    },
    {
      "bufferView": 1,
      "byteOffset": 3145536,
      "componentType": 5126,
      "count": 65532,
      "max": [
        55.44566345214844,
        -859.2039184570313,
        284.59161376953125
      ],
      "min": [
        -2.4802405834198,
        -954.6961059570313,
        184.22669982910156
      ],
      "type": "VEC3"
    },
    {
      "bufferView": 1,
      "byteOffset": 3931920,
      "componentType": 5126,
      "count": 65532,
      "max": [
        0.9999977946281433,
        1.0,
        0.9999041557312012
      ],
      "min": [
        -0.9999982714653015,
        -1.0,
        -0.9998593330383301
      ],
      "type": "VEC3"
    },
    {
      "bufferView": 0,
      "byteOffset": 2665548,
      "componentType": 5125,
      "count": 317313,
      "type": "SCALAR"
    },
    {
      "bufferView": 1,
      "byteOffset": 4718304,
      "componentType": 5126,
      "count": 65532,
      "max": [
        59.9456672668457,
        -856.5103759765625,
        283.8297424316406
      ],
      "min": [
        -43.17984390258789,
        -912.0736083984375,
        193.16323852539063
      ],
      "type": "VEC3"
    },
    {
      "bufferView": 1,
      "byteOffset": 5504688,
      "componentType": 5126,
      "count": 65532,
      "max": [
        0.9999977946281433,
        0.9999984502792358,
        0.9999781847000122
      ],
      "min": [
        -0.9999974370002747,
        -0.9999808073043823,
        -0.9999675154685974
      ],
      "type": "VEC3"
    },
    {
      "bufferView": 0,
      "byteOffset": 3934800,
      "componentType": 5125,
      "count": 341265,
      "type": "SCALAR"
    },
    {
      "bufferView": 1,
      "byteOffset": 6291072,
      "componentType": 5126,
      "count": 65532,
      "max": [
        64.44566345214844,
        -880.4236450195313,
        304.29705810546875
      ],
      "min": [
        -55.34523010253906,
        -929.6875610351563,
        198.45777893066406
      ],
      "type": "VEC3"
    },
    {
      "bufferView": 1,
      "byteOffset": 7077456,
      "componentType": 5126,
      "count": 65532,
      "max": [
        0.999997079372406,
        0.9999843835830688,
        0.9999943971633911
      ],
      "min": [
        -0.999998152256012,
        -0.9999948740005493,
        -0.9999535083770752
      ],
      "type": "VEC3"
    },
    {
      "bufferView": 0,
      "byteOffset": 5299860,
      "componentType": 5125,
      "count": 338922,
      "type": "SCALAR"
    },
    {
      "bufferView": 1,
      "byteOffset": 7863840,
      "componentType": 5126,
      "count": 65532,
      "max": [
        64.44566345214844,
        -910.2167358398438,
        303.82275390625
      ],
      "min": [
        -45.40400314331055,
        -954.079833984375,
        200.37515258789063
      ],
      "type": "VEC3"
    },
    {
      "bufferView": 1,
      "byteOffset": 8650224,
      "componentType": 5126,
      "count": 65532,
      "max": [
        0.9999978542327881,
        1.0,
        0.9999955296516418
      ],
      "min": [
        -0.9999974370002747,
        -1.0,
        -0.9999998807907104
      ],
      "type": "VEC3"
    },
    {
      "bufferView": 0,
      "byteOffset": 6655548,
      "componentType": 5125,
      "count": 338664,
      "type": "SCALAR"
    },
    {
      "bufferView": 1,
      "byteOffset": 9436608,
      "componentType": 5126,
      "count": 65532,
      "max": [
        64.44566345214844,
        -869.1873779296875,
        259.3313903808594
      ],
      "min": [
        15.237878799438477,
        -961.3099975585938,
        141.30014038085938
      ],
      "type": "VEC3"
    },
    {
      "bufferView": 1,
      "byteOffset": 10222992,
      "componentType": 5126,
      "count": 65532,
      "max": [
        1.0,
        1.0,
        1.0
      ],
      "min": [
        -1.0,
        -1.0,
        -1.0
      ],
      "type": "VEC3"
    },
    {
      "bufferView": 0,
      "byteOffset": 8010204,
      "componentType": 5125,
      "count": 315327,
      "type": "SCALAR"
    },
    {
      "bufferView": 1,
      "byteOffset": 11009376,
      "componentType": 5126,
      "count": 65532,
      "max": [
        65.81604766845703,
        -895.1759643554688,
        189.0734100341797
      ],
      "min": [
        51.416046142578125,
        -944.3485717773438,
        130.65728759765625
      ],
      "type": "VEC3"
    },
    {
      "bufferView": 1,
      "byteOffset": 11795760,
      "componentType": 5126,
      "count": 65532,
      "max": [
        1.0,
        1.0,
        1.0
      ],
      "min": [
        -1.0,
        -1.0,
        -1.0
      ],
      "type": "VEC3"
    },
    {
      "bufferView": 0,
      "byteOffset": 9271512,
      "componentType": 5125,
      "count": 327678,
      "type": "SCALAR"
    },
    {
      "bufferView": 1,
      "byteOffset": 12582144,
      "componentType": 5126,
      "count": 65532,
      "max": [
        60.976043701171875,
        -898.1827392578125,
        155.94741821289063
      ],
      "min": [
        57.066043853759766,
        -938.90673828125,
        143.94300842285156
      ],
      "type": "VEC3"
    },
    {
      "bufferView": 1,
      "byteOffset": 13368528,
      "componentType": 5126,
      "count": 65532,
      "max": [
        1.0,
        1.0,
        1.0
      ],
      "min": [
        -1.0,
        -1.0,
        -1.0
      ],
      "type": "VEC3"
    },
    {
      "bufferView": 0,
      "byteOffset": 10582224,
      "componentType": 5125,
      "count": 342939,
      "type": "SCALAR"
    },
    {
      "bufferView": 1,
      "byteOffset": 14154912,
      "componentType": 5126,
      "count": 65532,
      "max": [
        63.51604461669922,
        -900.1067504882813,
        158.86700439453125
      ],
      "min": [
        50.316043853759766,
        -945.5167846679688,
        141.08700561523438
      ],
      "type": "VEC3"
    },
    {
      "bufferView": 1,
      "byteOffset": 14941296,
      "componentType": 5126,
      "count": 65532,
      "max": [
        1.0,
        1.0,
        1.0
      ],
      "min": [
        -1.0,
        -1.0,
        -1.0
      ],
      "type": "VEC3"
    },
    {
      "bufferView": 0,
      "byteOffset": 11953980,
      "componentType": 5125,
      "count": 325014,
      "type": "SCALAR"
    },
    {
      "bufferView": 1,
      "byteOffset": 15727680,
      "componentType": 5126,
      "count": 65532,
      "max": [
        68.91604614257813,
        -897.5967407226563,
        158.9770050048828
      ],
      "min": [
        56.316043853759766,
        -945.7967529296875,
        140.9770050048828
      ],
      "type": "VEC3"
    },
    {
      "bufferView": 1,
      "byteOffset": 16514064,
      "componentType": 5126,
      "count": 65532,
      "max": [
        1.0,
        1.0,
        1.0
      ],
      "min": [
        -1.0,
        -1.0,
        -1.0
      ],
      "type": "VEC3"
    },
    {
      "bufferView": 0,
      "byteOffset": 13254036,
      "componentType": 5125,
      "count": 320508,
      "type": "SCALAR"
    },
    {
      "bufferView": 1,
      "byteOffset": 17300448,
      "componentType": 5126,
      "count": 65532,
      "max": [
        63.066043853759766,
        -894.8265380859375,
        194.6984100341797
      ],
      "min": [
        51.416046142578125,
        -947.8265380859375,
        129.1984100341797
      ],
      "type": "VEC3"
    },
    {
      "bufferView": 1,
      "byteOffset": 18086832,
      "componentType": 5126,
      "count": 65532,
      "max": [
        1.0,
        1.0,
        1.0
      ],
      "min": [
        -1.0,
        -1.0,
        -1.0
      ],
      "type": "VEC3"
    },
    {
      "bufferView": 0,
      "byteOffset": 14536068,
      "componentType": 5125,
      "count": 306834,
      "type": "SCALAR"
    },
    {
      "bufferView": 1,
      "byteOffset": 18873216,
      "componentType": 5126,
      "count": 65532,
      "max": [
        75.04813385009766,
        -866.39501953125,
        242.72967529296875
      ],
      "min": [
        -2.109933614730835,
        -957.4126586914063,
        123.38444519042969
      ],
      "type": "VEC3"
    },
    {
      "bufferView": 1,
      "byteOffset": 19659600,
      "componentType": 5126,
      "count": 65532,
      "max": [
        1.0,
        1.0,
        1.0
      ],
      "min": [
        -1.0,
        -1.0,
        -1.0
      ],
      "type": "VEC3"
    },
    {
      "bufferView": 0,
      "byteOffset": 15763404,
      "componentType": 5125,
      "count": 333942,
      "type": "SCALAR"
    },
    {
      "bufferView": 1,
      "byteOffset": 20445984,
      "componentType": 5126,
      "count": 65532,
      "max": [
        54.08223342895508,
        -859.1620483398438,
        283.0780334472656
      ],
      "min": [
        -53.99094009399414,
        -986.5695190429688,
        141.8352508544922
      ],
      "type": "VEC3"
    },
    {
      "bufferView": 1,
      "byteOffset": 21232368,
      "componentType": 5126,
      "count": 65532,
      "max": [
        1.0,
        1.0,
        0.9999989867210388
      ],
      "min": [
        -1.0,
        -1.0,
        -0.999998927116394
      ],
      "type": "VEC3"
    },
    {
      "bufferView": 0,
      "byteOffset": 17099172,
      "componentType": 5125,
      "count": 342999,
      "type": "SCALAR"
    },
    {
      "bufferView": 1,
      "byteOffset": 22018752,
      "componentType": 5126,
      "count": 65532,
      "max": [
        63.08223342895508,
        -868.6934814453125,
        300.4206237792969
      ],
      "min": [
        2.9547605514526367,
        -952.6961059570313,
        193.53384399414063
      ],
      "type": "VEC3"
    },
    {
      "bufferView": 1,
      "byteOffset": 22805136,
      "componentType": 5126,
      "count": 65532,
      "max": [
        1.0,
        1.0,
        0.9999991059303284
      ],
      "min": [
        -1.0,
        -1.0,
        -0.9999990463256836
      ],
      "type": "VEC3"
    },
    {
      "bufferView": 0,
      "byteOffset": 18471168,
      "componentType": 5125,
      "count": 340092,
      "type": "SCALAR"
    },
    {
      "bufferView": 1,
      "byteOffset": 23591520,
      "componentType": 5126,
      "count": 65532,
      "max": [
        63.116844177246094,
        -872.5492553710938,
        258.123046875
      ],
      "min": [
        27.358264923095703,
        -958.3753051757813,
        147.00518798828125
      ],
      "type": "VEC3"
    },
    {
      "bufferView": 1,
      "byteOffset": 24377904,
      "componentType": 5126,
      "count": 65532,
      "max": [
        0.999922513961792,
        1.0,
        0.9999133348464966
      ],
      "min": [
        -0.9999223947525024,
        -1.0,
        -0.9999533891677856
      ],
      "type": "VEC3"
    },
    {
      "bufferView": 0,
      "byteOffset": 19831536,
      "componentType": 5125,
      "count": 321744,
      "type": "SCALAR"
    },
    {
      "bufferView": 1,
      "byteOffset": 25164288,
      "componentType": 5126,
      "count": 39770,
      "max": [
        59.02507781982422,
        -871.11669921875,
        301.0715637207031
      ],
      "min": [
        -32.35618591308594,
        -978.3047485351563,
        145.67138671875
      ],
      "type": "VEC3"
    },
    {
      "bufferView": 1,
      "byteOffset": 25641528,
      "componentType": 5126,
      "count": 39770,
      "max": [
        1.0,
        1.0,
        1.0
      ],
      "min": [
        -1.0,
        -1.0,
        -1.0
      ],
      "type": "VEC3"
    },
    {
      "bufferView": 0,
      "byteOffset": 21118512,
      "componentType": 5125,
      "count": 193647,
      "type": "SCALAR"
    }
  ],
  "asset": {
    "extras": {
      "author": "ciccarese (https://sketchfab.com/ciccarese)",
      "license": "CC-BY-4.0 (http://creativecommons.org/licenses/by/4.0/)",
      "source": "https://sketchfab.com/3d-models/youbionic-hand-2019-db4efd60aec3417192a5592062abe2dc",
      "title": "Youbionic Hand 2019"
    },
    "generator": "Sketchfab-12.66.0",
    "version": "2.0"
  },
  "bufferViews": [
    {
      "buffer": 0,
      "byteLength": 21893100,
      "name": "floatBufferViews",
      "target": 34963
    },
    {
      "buffer": 0,
      "byteLength": 26118768,
      "byteOffset": 21893100,
      "byteStride": 12,
      "name": "floatBufferViews",
      "target": 34962
    }
  ],
  "buffers": [
    {
      "byteLength": 48011868,
      "uri": "scene.bin"
    }
  ],
  "materials": [
    {
      "doubleSided": true,
      "name": "Scene_-_Root",
      "pbrMetallicRoughness": {
        "baseColorFactor": [
          0.013192933680047703,
          0.013192933680047703,
          0.013192933680047703,
          1.0
        ],
        "metallicFactor": 0.4102515244,
        "roughnessFactor": 0.3458460366
      }
    }
  ],
  "meshes": [
    {
      "name": "Object_0",
      "primitives": [
        {
          "attributes": {
            "NORMAL": 1,
            "POSITION": 0
          },
          "indices": 2,
          "material": 0,
          "mode": 4
        }
      ]
    },
    {
      "name": "Object_1",
      "primitives": [
        {
          "attributes": {
            "NORMAL": 4,
            "POSITION": 3
          },
          "indices": 5,
          "material": 0,
          "mode": 4
        }
      ]
    },
    {
      "name": "Object_2",
      "primitives": [
        {
          "attributes": {
            "NORMAL": 7,
            "POSITION": 6
          },
          "indices": 8,
          "material": 0,
          "mode": 4
        }
      ]
    },
    {
      "name": "Object_3",
      "primitives": [
        {
          "attributes": {
            "NORMAL": 10,
            "POSITION": 9
          },
          "indices": 11,
          "material": 0,
          "mode": 4
        }
      ]
    },
    {
      "name": "Object_4",
      "primitives": [
        {
          "attributes": {
            "NORMAL": 13,
            "POSITION": 12
          },
          "indices": 14,
          "material": 0,
          "mode": 4
        }
      ]
    },
    {
      "name": "Object_5",
      "primitives": [
        {
          "attributes": {
            "NORMAL": 16,
            "POSITION": 15
          },
          "indices": 17,
          "material": 0,
          "mode": 4
        }
      ]
    },
    {
      "name": "Object_6",
      "primitives": [
        {
          "attributes": {
            "NORMAL": 19,
            "POSITION": 18
          },
          "indices": 20,
          "material": 0,
          "mode": 4
        }
      ]
    },
    {
      "name": "Object_7",
      "primitives": [
        {
          "attributes": {
            "NORMAL": 22,
            "POSITION": 21
          },
          "indices": 23,
          "material": 0,
          "mode": 4
        }
      ]
    },
    {
      "name": "Object_8",
      "primitives": [
        {
          "attributes": {
            "NORMAL": 25,
            "POSITION": 24
          },
          "indices": 26,
          "material": 0,
          "mode": 4
        }
      ]
    },
    {
      "name": "Object_9",
      "primitives": [
        {
          "attributes": {
            "NORMAL": 28,
            "POSITION": 27
          },
          "indices": 29,
          "material": 0,
          "mode": 4
        }
      ]
    },
    {
      "name": "Object_10",
      "primitives": [
        {
          "attributes": {
            "NORMAL": 31,
            "POSITION": 30
          },
          "indices": 32,
          "material": 0,
          "mode": 4
        }
      ]
    },
    {
      "name": "Object_11",
      "primitives": [
        {
          "attributes": {
            "NORMAL": 34,
            "POSITION": 33
          },
          "indices": 35,
          "material": 0,
          "mode": 4
        }
      ]
    },
    {
      "name": "Object_12",
      "primitives": [
        {
          "attributes": {
            "NORMAL": 37,
            "POSITION": 36
          },
          "indices": 38,
          "material": 0,
          "mode": 4
        }
      ]
    },
    {
      "name": "Object_13",
      "primitives": [
        {
          "attributes": {
            "NORMAL": 40,
            "POSITION": 39
          },
          "indices": 41,
          "material": 0,
          "mode": 4
        }
      ]
    },
    {
      "name": "Object_14",
      "primitives": [
        {
          "attributes": {
            "NORMAL": 43,
            "POSITION": 42
          },
          "indices": 44,
          "material": 0,
          "mode": 4
        }
      ]
    },
    {
      "name": "Object_15",
      "primitives": [
        {
          "attributes": {
            "NORMAL": 46,
            "POSITION": 45
          },
          "indices": 47,
          "material": 0,
          "mode": 4
        }
      ]
    },
    {
      "name": "Object_16",
      "primitives": [
        {
          "attributes": {
            "NORMAL": 49,
            "POSITION": 48
          },
          "indices": 50,
          "material": 0,
          "mode": 4
        }
      ]
    }
  ],
  "nodes": [
    {
      "children": [
        1
      ],
      "matrix": [
        1.0,
        0.0,
        0.0,
        0.0,
        0.0,
        2.220446049250313e-16,
        -1.0,
        0.0,
        0.0,
        1.0,
        2.220446049250313e-16,
        0.0,
        0.0,
        0.0,
        0.0,
        1.0
      ],
      "name": "Sketchfab_model"
    },
    {
      "children": [
        2,
        3,
        4,
        5,
        6,
        7,
        8,
        9,
        10,
        11,
        12,
        13,
        14,
        15,
        16,
        17,
        18
      ],
      "name": "youbionic-hand-assembly.stl.cleaner.materialmerger.gles"
    },
    {
      "mesh": 0,
      "name": "Object_2"
    },
    {
      "mesh": 1,
      "name": "Object_3"
    },
    {
      "mesh": 2,
      "name": "Object_4"
    },
    {
      "mesh": 3,
      "name": "Object_5"
    },
    {
      "mesh": 4,
      "name": "Object_6"
    },
    {
      "mesh": 5,
      "name": "Object_7"
    },
    {
      "mesh": 6,
      "name": "Object_8"
    },
    {
      "mesh": 7,
      "name": "Object_9"
    },
    {
      "mesh": 8,
      "name": "Object_10"
    },
    {
      "mesh": 9,
      "name": "Object_11"
    },
    {
      "mesh": 10,
      "name": "Object_12"
    },
    {
      "mesh": 11,
      "name": "Object_13"
    },
    {
      "mesh": 12,
      "name": "Object_14"
    },
    {
      "mesh": 13,
      "name": "Object_15"
    },
    {
      "mesh": 14,
      "name": "Object_16"
    },
    {
      "mesh": 15,
      "name": "Object_17"
    },
    {
      "mesh": 16,
      "name": "Object_18"
    }
  ],
  "scene": 0,
  "scenes": [
    {
      "name": "Sketchfab_Scene",
      "nodes": [
        0
      ]
    }
  ]
}
