{
  "accessors": [
    {
      "bufferView": 1,
      "componentType": 5126,
      "count": 15036,
      "max": [
        21.0,
        21.0,
        71.95999908447266
      ],
      "min": [
        -21.0,
        -38.0,
        1.7763568394002505e-14
      ],
      "type": "VEC3"
    },
    {
      "bufferView": 1,
      "byteOffset": 180432,
      "componentType": 5126,
      "count": 15036,
      "max": [
        1.0,
        1.0,
        1.0
      ],
      "min": [
        -1.0,
        -1.0,
        -1.0
      ],
      "type": "VEC3"
    },
    {
      "bufferView": 2,
      "componentType": 5126,
      "count": 15036,
      "max": [
        0.9372549057006836,
        0.9372549057006836,
        0.9372549057006836,
        1.0
      ],
      "min": [
        0.0941176488995552,
        0.0941176488995552,
        0.0941176488995552,
        1.0
      ],
      "type": "VEC4"
    },
    {
      "bufferView": 0,
      "componentType": 5125,
      "count": 65832,
      "type": "SCALAR"
    }
  ],
  "asset": {
    "extras": {
      "author": "moogh (https://sketchfab.com/moogh)",
      "license": "CC-BY-4.0 (http://creativecommons.org/licenses/by/4.0/)",
      "source": "https://sketchfab.com/3d-models/nema-17-stepper-motor-42mm-x-48mm-b970d52c4b554768a1b576cb381abf07",
      "title": "Nema 17 Stepper Motor (42mm x 48mm)"
    },
    "generator": "Sketchfab-12.64.0",
    "version": "2.0"
  },
  "bufferViews": [
    {
      "buffer": 0,
      "byteLength": 263328,
      "name": "floatBufferViews",
      "target": 34963
    },
    {
      "buffer": 0,
      "byteLength": 360864,
      "byteOffset": 263328,
      "byteStride": 12,
      "name": "floatBufferViews",
      "target": 34962
    },
    {
      "buffer": 0,
      "byteLength": 240576,
      "byteOffset": 624192,
      "byteStride": 16,
      "name": "floatBufferViews",
      "target": 34962
    }
  ],
  "buffers": [
    {
      "byteLength": 864768,
      "uri": "scene.bin"
    }
  ],
  "materials": [
    {
      "doubleSided": true,
      "name": "Scene_-_Root",
      "pbrMetallicRoughness": {
        "roughnessFactor": 0.2504286522080149
      }
    }
  ],
  "meshes": [
    {
      "name": "Object_0",
      "primitives": [
        {
          "attributes": {
            "COLOR_0": 2,
            "NORMAL": 1,
            "POSITION": 0
          },
          "indices": 3,
          "material": 0,
          "mode": 4
        }
      ]
    }
  ],
  "nodes": [
    {
      "children": [
        1
      ],
      "matrix": [
        1.0,
        0.0,
        0.0,
        0.0,
        0.0,
        2.220446049250313e-16,
        -1.0,
        0.0,
        0.0,
        1.0,
        2.220446049250313e-16,
        0.0,
        0.0,
        0.0,
        0.0,
        1.0
      ],
      "name": "Sketchfab_model"
    },
    {
      "children": [
        2
      ],
      "name": "Nema 17 Stepper.stl.cleaner.materialmerger.gles"
    },
    {
      "mesh": 0,
      "name": "Object_2"
    }
  ],
  "scene": 0,
  "scenes": [
    {
      "name": "Sketchfab_Scene",
      "nodes": [
        0
      ]
    }
  ]
}
