{
  "accessors": [
    {
      "bufferView": 2,
      "componentType": 5126,
      "count": 21812,
      "max": [
        0.9923442602157593,
        0.9923442006111145,
        18.992753982543945
      ],
      "min": [
        -0.9923442602157593,
        -0.992344319820404,
        -1.0005003213882446
      ],
      "type": "VEC3"
    },
    {
      "bufferView": 2,
      "byteOffset": 261744,
      "componentType": 5126,
      "count": 21812,
      "max": [
        0.999999463558197,
        0.999999463558197,
        1.0
      ],
      "min": [
        -0.999999463558197,
        -0.999999463558197,
        -1.0
      ],
      "type": "VEC3"
    },
    {
      "bufferView": 1,
      "componentType": 5126,
      "count": 21812,
      "max": [
        1.0000001192092896,
        1.0000001192092896
      ],
      "min": [
        0.0,
        0.010117354802787304
      ],
      "type": "VEC2"
    },
    {
      "bufferView": 0,
      "componentType": 5125,
      "count": 112896,
      "type": "SCALAR"
    }
  ],
  "asset": {
    "extras": {
      "author": "3dLabWare (https://sketchfab.com/3dlabwaremodels)",
      "license": "CC-BY-4.0 (http://creativecommons.org/licenses/by/4.0/)",
      "source": "https://sketchfab.com/3d-models/pipette-laboratory-essential-tool-4ed0651f9de14cdf96891449acb7cc38",
      "title": "Pipette - Laboratory Essential Tool"
    },
    "generator": "Sketchfab-15.59.0",
    "version": "2.0"
  },
  "bufferViews": [
    {
      "buffer": 0,
      "byteLength": 451584,
      "name": "floatBufferViews",
      "target": 34963
    },
    {
      "buffer": 0,
      "byteLength": 174496,
      "byteOffset": 451584,
      "byteStride": 8,
      "name": "floatBufferViews",
      "target": 34962
    },
    {
      "buffer": 0,
      "byteLength": 523488,
      "byteOffset": 626080,
      "byteStride": 12,
      "name": "floatBufferViews",
      "target": 34962
    }
  ],
  "buffers": [
    {
      "byteLength": 1149568,
      "uri": "scene.bin"
    }
  ],
  "extensionsUsed": [
    "KHR_materials_transmission"
  ],
  "materials": [
    {
      "alphaMode": "BLEND",
      "doubleSided": true,
      "extensions": {
        "KHR_materials_transmission": {
          "transmissionFactor": 1.0
        }
      },
      "name": "Scene_-_Root",
      "pbrMetallicRoughness": {
        "baseColorFactor": [
          1.0,
          1.0,
          1.0,
          0.25
        ],
        "metallicFactor": 0.0,
        "roughnessFactor": 0.29104850605258986
      }
    }
  ],
  "meshes": [
    {
      "name": "Pipette__0",
      "primitives": [
        {
          "attributes": {
            "NORMAL": 1,
            "POSITION": 0,
            "TEXCOORD_0": 2
          },
          "indices": 3,
          "material": 0,
          "mode": 4
        }
      ]
    }
  ],
  "nodes": [
    {
      "children": [
        1
      ],
      "matrix": [
        1.0,
        0.0,
        0.0,
        0.0,
        0.0,
        2.220446049250313e-16,
        -1.0,
        0.0,
        0.0,
        1.0,
        2.220446049250313e-16,
        0.0,
        0.0,
        0.0,
        0.0,
        1.0
      ],
      "name": "Sketchfab_model"
    },
    {
      "children": [
        2
      ],
      "matrix": [
        0.009999999776482582,
        0.0,
        0.0,
        0.0,
        0.0,
        0.0,
        0.009999999776482582,
        0.0,
        0.0,
        -0.009999999776482582,
        0.0,
        0.0,
        0.0,
        0.0,
        0.0,
        1.0
      ],
      "name": "7e605c9215d741f2a186d53591d1d279.fbx"
    },
    {
      "children": [
        3
      ],
      "name": "RootNode"
    },
    {
      "children": [
        4
      ],
      "matrix": [
        1.0000001192092896,
        -2.22044631394811e-16,
        -2.2204461815991973e-16,
        0.0,
        2.220446146309061e-16,
        1.0000001192092867,
        -7.549791736952267e-08,
        0.0,
        2.2204463492382435e-16,
        7.549791736952267e-08,
        1.0000001192092867,
        0.0,
        4.999999523162842,
        0.0,
        -9.0,
        1.0
      ],
      "name": "Pipette"
    },
    {
      "mesh": 0,
      "name": "Pipette__0"
    }
  ],
  "scene": 0,
  "scenes": [
    {
      "name": "Sketchfab_Scene",
      "nodes": [
        0
      ]
    }
  ]
}
