{
  "accessors": [
    {
      "bufferView": 2,
      "componentType": 5126,
      "count": 3120,
      "max": [
        12.605857849121094,
        -18.512941360473633,
        1.5114023685455322
      ],
      "min": [
        -11.913890838623047,
        -23.658050537109375,
        0.7379071712493896
      ],
      "type": "VEC3"
    },
    {
      "bufferView": 2,
      "byteOffset": 37440,
      "componentType": 5126,
      "count": 3120,
      "max": [
        1.0,
        1.0,
        1.0
      ],
      "min": [
        -1.0,
        -1.0,
        -1.0
      ],
      "type": "VEC3"
    },
    {
      "bufferView": 1,
      "componentType": 5126,
      "count": 3120,
      "max": [
        0.8758713006973267,
        1.0009015798568726
      ],
      "min": [
        0.12413311749696732,
        0.0
      ],
      "type": "VEC2"
    },
    {
      "bufferView": 0,
      "componentType": 5125,
      "count": 4632,
      "type": "SCALAR"
    },
    {
      "bufferView": 2,
      "byteOffset": 74880,
      "componentType": 5126,
      "count": 627,
      "max": [
        15.546382904052734,
        34.046974182128906,
        1.1112643480300903
      ],
      "min": [
        -15.546382904052734,
        -36.1397705078125,
        -1.1112643480300903
      ],
      "type": "VEC3"
    },
    {
      "bufferView": 2,
      "byteOffset": 82404,
      "componentType": 5126,
      "count": 627,
      "max": [
        1.0,
        1.0,
        1.0
      ],
      "min": [
        -1.0,
        -1.0,
        -1.0
      ],
      "type": "VEC3"
    },
    {
      "bufferView": 1,
      "byteOffset": 24960,
      "componentType": 5126,
      "count": 627,
      "max": [
        0.6840401291847229,
        0.7671633958816528
      ],
      "min": [
        0.33503681421279907,
        0.4582144021987915
      ],
      "type": "VEC2"
    },
    {
      "bufferView": 0,
      "byteOffset": 18528,
      "componentType": 5125,
      "count": 1320,
      "type": "SCALAR"
    },
    {
      "bufferView": 2,
      "byteOffset": 89928,
      "componentType": 5126,
      "count": 15255,
      "max": [
        15.601487159729004,
        34.046974182128906,
        1.1112654209136963
      ],
      "min": [
        -15.546382904052734,
        -36.1397705078125,
        -1.111262559890747
      ],
      "type": "VEC3"
    },
    {
      "bufferView": 2,
      "byteOffset": 272988,
      "componentType": 5126,
      "count": 15255,
      "max": [
        1.0,
        1.0,
        1.0
      ],
      "min": [
        -1.0,
        -1.0,
        -1.0
      ],
      "type": "VEC3"
    },
    {
      "bufferView": 1,
      "byteOffset": 29976,
      "componentType": 5126,
      "count": 15255,
      "max": [
        1.0314700603485107,
        1.0137882232666016
      ],
      "min": [
        -0.03145380690693855,
        -0.013779282569885254
      ],
      "type": "VEC2"
    },
    {
      "bufferView": 0,
      "byteOffset": 23808,
      "componentType": 5125,
      "count": 36390,
      "type": "SCALAR"
    },
    {
      "bufferView": 2,
      "byteOffset": 456048,
      "componentType": 5126,
      "count": 2314,
      "max": [
        12.066652297973633,
        59.79364013671875,
        9.803507804870605
      ],
      "min": [
        1.6883187294006348,
        40.154518127441406,
        -0.5748313069343567
      ],
      "type": "VEC3"
    },
    {
      "bufferView": 2,
      "byteOffset": 483816,
      "componentType": 5126,
      "count": 2314,
      "max": [
        0.9979701638221741,
        1.0,
        1.0
      ],
      "min": [
        -0.9979701638221741,
        -1.0,
        -1.0
      ],
      "type": "VEC3"
    },
    {
      "bufferView": 1,
      "byteOffset": 152016,
      "componentType": 5126,
      "count": 2314,
      "max": [
        1.0,
        1.0
      ],
      "min": [
        0.0,
        0.01000000536441803
      ],
      "type": "VEC2"
    },
    {
      "bufferView": 0,
      "byteOffset": 169368,
      "componentType": 5125,
      "count": 3552,
      "type": "SCALAR"
    },
    {
      "bufferView": 2,
      "byteOffset": 511584,
      "componentType": 5126,
      "count": 1899,
      "max": [
        9.405517578125,
        47.513511657714844,
        3.7663426399230957
      ],
      "min": [
        4.345093727111816,
        29.95404052734375,
        -1.4366786479949951
      ],
      "type": "VEC3"
    },
    {
      "bufferView": 2,
      "byteOffset": 534372,
      "componentType": 5126,
      "count": 1899,
      "max": [
        1.0,
        1.0,
        1.0
      ],
      "min": [
        -1.0,
        -1.0,
        -1.0
      ],
      "type": "VEC3"
    },
    {
      "bufferView": 1,
      "byteOffset": 170528,
      "componentType": 5126,
      "count": 1899,
      "max": [
        0.875,
        1.0
      ],
      "min": [
        0.0,
        0.0
      ],
      "type": "VEC2"
    },
    {
      "bufferView": 0,
      "byteOffset": 183576,
      "componentType": 5125,
      "count": 4884,
      "type": "SCALAR"
    },
    {
      "bufferView": 2,
      "byteOffset": 557160,
      "componentType": 5126,
      "count": 2736,
      "max": [
        13.028616905212402,
        20.711759567260742,
        1.7559177875518799
      ],
      "min": [
        5.214601516723633,
        15.265453338623047,
        0.7641581296920776
      ],
      "type": "VEC3"
    },
    {
      "bufferView": 2,
      "byteOffset": 589992,
      "componentType": 5126,
      "count": 2736,
      "max": [
        1.0,
        1.0,
        1.0
      ],
      "min": [
        -1.0,
        -1.0,
        -1.0
      ],
      "type": "VEC3"
    },
    {
      "bufferView": 1,
      "byteOffset": 185720,
      "componentType": 5126,
      "count": 2736,
      "max": [
        0.534450113773346,
        0.7039600014686584
      ],
      "min": [
        0.11403089016675949,
        0.049358975142240524
      ],
      "type": "VEC2"
    },
    {
      "bufferView": 0,
      "byteOffset": 203112,
      "componentType": 5125,
      "count": 4056,
      "type": "SCALAR"
    },
    {
      "bufferView": 2,
      "byteOffset": 622824,
      "componentType": 5126,
      "count": 1368,
      "max": [
        13.230798721313477,
        19.51000213623047,
        2.1674602031707764
      ],
      "min": [
        4.957157135009766,
        16.360519409179688,
        0.886146605014801
      ],
      "type": "VEC3"
    },
    {
      "bufferView": 2,
      "byteOffset": 639240,
      "componentType": 5126,
      "count": 1368,
      "max": [
        1.0,
        1.0,
        1.0
      ],
      "min": [
        -1.0,
        -1.0,
        -1.0
      ],
      "type": "VEC3"
    },
    {
      "bufferView": 1,
      "byteOffset": 207608,
      "componentType": 5126,
      "count": 1368,
      "max": [
        0.8859692215919495,
        1.0109691619873047
      ],
      "min": [
        0.11403089016675949,
        0.0
      ],
      "type": "VEC2"
    },
    {
      "bufferView": 0,
      "byteOffset": 219336,
      "componentType": 5125,
      "count": 2064,
      "type": "SCALAR"
    },
    {
      "bufferView": 2,
      "byteOffset": 655656,
      "componentType": 5126,
      "count": 132,
      "max": [
        13.230798721313477,
        19.113264083862305,
        2.1674602031707764
      ],
      "min": [
        4.957157135009766,
        16.757259368896484,
        0.886146605014801
      ],
      "type": "VEC3"
    },
    {
      "bufferView": 2,
      "byteOffset": 657240,
      "componentType": 5126,
      "count": 132,
      "max": [
        1.0,
        0.00012400544073898345,
        1.0
      ],
      "min": [
        -1.0,
        -0.00012400734703987837,
        -1.0
      ],
      "type": "VEC3"
    },
    {
      "bufferView": 1,
      "byteOffset": 218552,
      "componentType": 5126,
      "count": 132,
      "max": [
        0.8537859916687012,
        0.9787859916687012
      ],
      "min": [
        0.14621403813362122,
        0.280801385641098
      ],
      "type": "VEC2"
    },
    {
      "bufferView": 0,
      "byteOffset": 227592,
      "componentType": 5125,
      "count": 216,
      "type": "SCALAR"
    },
    {
      "bufferView": 2,
      "byteOffset": 658824,
      "componentType": 5126,
      "count": 1406,
      "max": [
        -2.5305166244506836,
        3.255552053451538,
        2.361966371536255
      ],
      "min": [
        -13.05255126953125,
        -5.348353862762451,
        0.8956547975540161
      ],
      "type": "VEC3"
    },
    {
      "bufferView": 2,
      "byteOffset": 675696,
      "componentType": 5126,
      "count": 1406,
      "max": [
        1.0,
        1.0,
        1.0
      ],
      "min": [
        -1.0,
        -1.0,
        -1.0
      ],
      "type": "VEC3"
    },
    {
      "bufferView": 1,
      "byteOffset": 219608,
      "componentType": 5126,
      "count": 1406,
      "max": [
        0.8750000596046448,
        1.0
      ],
      "min": [
        0.12347929924726486,
        0.0
      ],
      "type": "VEC2"
    },
    {
      "bufferView": 0,
      "byteOffset": 228456,
      "componentType": 5125,
      "count": 2103,
      "type": "SCALAR"
    },
    {
      "bufferView": 2,
      "byteOffset": 692568,
      "componentType": 5126,
      "count": 3189,
      "max": [
        -3.6274209022521973,
        6.742857456207275,
        1.8642207384109497
      ],
      "min": [
        -11.955647468566895,
        -8.89189624786377,
        0.8956549763679504
      ],
      "type": "VEC3"
    },
    {
      "bufferView": 2,
      "byteOffset": 730836,
      "componentType": 5126,
      "count": 3189,
      "max": [
        1.0,
        1.0,
        1.0
      ],
      "min": [
        -1.0,
        -1.0,
        -1.0
      ],
      "type": "VEC3"
    },
    {
      "bufferView": 1,
      "byteOffset": 230856,
      "componentType": 5126,
      "count": 3189,
      "max": [
        0.540136456489563,
        0.7239378690719604
      ],
      "min": [
        0.1249999850988388,
        0.026062069460749626
      ],
      "type": "VEC2"
    },
    {
      "bufferView": 0,
      "byteOffset": 236868,
      "componentType": 5125,
      "count": 4701,
      "type": "SCALAR"
    },
    {
      "bufferView": 2,
      "byteOffset": 769104,
      "componentType": 5126,
      "count": 202,
      "max": [
        54.61066436767578,
        0.0,
        29.368465423583984
      ],
      "min": [
        -54.61056900024414,
        0.0,
        -29.368459701538086
      ],
      "type": "VEC3"
    },
    {
      "bufferView": 2,
      "byteOffset": 771528,
      "componentType": 5126,
      "count": 202,
      "max": [
        0.0,
        1.0,
        0.0
      ],
      "min": [
        0.0,
        1.0,
        0.0
      ],
      "type": "VEC3"
    },
    {
      "bufferView": 1,
      "byteOffset": 256368,
      "componentType": 5126,
      "count": 202,
      "max": [
        1.0,
        0.0
      ],
      "min": [
        0.0,
        0.0
      ],
      "type": "VEC2"
    },
    {
      "bufferView": 0,
      "byteOffset": 255672,
      "componentType": 5125,
      "count": 594,
      "type": "SCALAR"
    },
    {
      "bufferView": 2,
      "byteOffset": 773952,
      "componentType": 5126,
      "count": 442,
      "max": [
        60.093116760253906,
        0.0,
        29.368465423583984
      ],
      "min": [
        -60.09286117553711,
        0.0,
        -29.368459701538086
      ],
      "type": "VEC3"
    },
    {
      "bufferView": 2,
      "byteOffset": 779256,
      "componentType": 5126,
      "count": 442,
      "max": [
        0.0,
        1.0,
        0.0
      ],
      "min": [
        0.0,
        1.0,
        0.0
      ],
      "type": "VEC3"
    },
    {
      "bufferView": 1,
      "byteOffset": 257984,
      "componentType": 5126,
      "count": 442,
      "max": [
        1.0,
        0.0
      ],
      "min": [
        0.0,
        0.0
      ],
      "type": "VEC2"
    },
    {
      "bufferView": 0,
      "byteOffset": 258048,
      "componentType": 5125,
      "count": 1314,
      "type": "SCALAR"
    },
    {
      "bufferView": 2,
      "byteOffset": 784560,
      "componentType": 5126,
      "count": 442,
      "max": [
        60.093116760253906,
        0.0,
        29.36846351623535
      ],
      "min": [
        -60.09286117553711,
        0.0,
        -29.36846351623535
      ],
      "type": "VEC3"
    },
    {
      "bufferView": 2,
      "byteOffset": 789864,
      "componentType": 5126,
      "count": 442,
      "max": [
        0.0,
        1.0,
        0.0
      ],
      "min": [
        0.0,
        1.0,
        0.0
      ],
      "type": "VEC3"
    },
    {
      "bufferView": 1,
      "byteOffset": 261520,
      "componentType": 5126,
      "count": 442,
      "max": [
        1.0,
        0.0
      ],
      "min": [
        0.0,
        0.0
      ],
      "type": "VEC2"
    },
    {
      "bufferView": 0,
      "byteOffset": 263304,
      "componentType": 5125,
      "count": 1314,
      "type": "SCALAR"
    },
    {
      "bufferView": 2,
      "byteOffset": 795168,
      "componentType": 5126,
      "count": 4104,
      "max": [
        1.1802200078964233,
        20.711753845214844,
        1.7559170722961426
      ],
      "min": [
        -12.665590286254883,
        15.265446662902832,
        0.7641559839248657
      ],
      "type": "VEC3"
    },
    {
      "bufferView": 2,
      "byteOffset": 844416,
      "componentType": 5126,
      "count": 4104,
      "max": [
        1.0,
        1.0,
        1.0
      ],
      "min": [
        -1.0,
        -1.0,
        -1.0
      ],
      "type": "VEC3"
    },
    {
      "bufferView": 1,
      "byteOffset": 265056,
      "componentType": 5126,
      "count": 4104,
      "max": [
        0.9942129850387573,
        0.9960803389549255
      ],
      "min": [
        0.08249500393867493,
        -0.00016449856047984213
      ],
      "type": "VEC2"
    },
    {
      "bufferView": 0,
      "byteOffset": 268560,
      "componentType": 5125,
      "count": 6084,
      "type": "SCALAR"
    },
    {
      "bufferView": 2,
      "byteOffset": 893664,
      "componentType": 5126,
      "count": 1852,
      "max": [
        1.382401943206787,
        19.509994506835938,
        2.16745924949646
      ],
      "min": [
        -12.92303466796875,
        16.360515594482422,
        0.8861445188522339
      ],
      "type": "VEC3"
    },
    {
      "bufferView": 2,
      "byteOffset": 915888,
      "componentType": 5126,
      "count": 1852,
      "max": [
        1.0,
        1.0,
        1.0
      ],
      "min": [
        -1.0,
        -1.0,
        -1.0
      ],
      "type": "VEC3"
    },
    {
      "bufferView": 1,
      "byteOffset": 297888,
      "componentType": 5126,
      "count": 1852,
      "max": [
        0.8625238537788391,
        0.962992787361145
      ],
      "min": [
        2.161727685745518e-08,
        -9.983275539582337e-09
      ],
      "type": "VEC2"
    },
    {
      "bufferView": 0,
      "byteOffset": 292896,
      "componentType": 5125,
      "count": 2766,
      "type": "SCALAR"
    },
    {
      "bufferView": 2,
      "byteOffset": 938112,
      "componentType": 5126,
      "count": 421,
      "max": [
        1.382401943206787,
        19.113258361816406,
        2.16745924949646
      ],
      "min": [
        -12.92303466796875,
        16.360515594482422,
        0.8861445188522339
      ],
      "type": "VEC3"
    },
    {
      "bufferView": 2,
      "byteOffset": 943164,
      "componentType": 5126,
      "count": 421,
      "max": [
        1.0,
        8.303128561237827e-05,
        1.0
      ],
      "min": [
        -1.0,
        -0.9351227879524231,
        -1.0
      ],
      "type": "VEC3"
    },
    {
      "bufferView": 1,
      "byteOffset": 312704,
      "componentType": 5126,
      "count": 421,
      "max": [
        0.8625237941741943,
        0.851810097694397
      ],
      "min": [
        2.3105487301222638e-08,
        0.015263265930116177
      ],
      "type": "VEC2"
    },
    {
      "bufferView": 0,
      "byteOffset": 303960,
      "componentType": 5125,
      "count": 654,
      "type": "SCALAR"
    },
    {
      "bufferView": 2,
      "byteOffset": 948216,
      "componentType": 5126,
      "count": 1296,
      "max": [
        5.839837551116943,
        -29.84953498840332,
        3.226658344268799
      ],
      "min": [
        -9.714240074157715,
        -33.10733413696289,
        0.5963266491889954
      ],
      "type": "VEC3"
    },
    {
      "bufferView": 2,
      "byteOffset": 963768,
      "componentType": 5126,
      "count": 1296,
      "max": [
        1.0,
        1.0,
        1.0
      ],
      "min": [
        -1.0,
        -1.0,
        -1.0
      ],
      "type": "VEC3"
    },
    {
      "bufferView": 1,
      "byteOffset": 316072,
      "componentType": 5126,
      "count": 1296,
      "max": [
        0.8750001192092896,
        1.0
      ],
      "min": [
        0.0,
        0.0
      ],
      "type": "VEC2"
    },
    {
      "bufferView": 0,
      "byteOffset": 306576,
      "componentType": 5125,
      "count": 1962,
      "type": "SCALAR"
    },
    {
      "bufferView": 2,
      "byteOffset": 979320,
      "componentType": 5126,
      "count": 2772,
      "max": [
        5.17184591293335,
        -30.517526626586914,
        4.040299892425537
      ],
      "min": [
        -9.046248435974121,
        -46.62321090698242,
        -1.865591049194336
      ],
      "type": "VEC3"
    },
    {
      "bufferView": 2,
      "byteOffset": 1012584,
      "componentType": 5126,
      "count": 2772,
      "max": [
        1.0,
        1.0,
        1.0
      ],
      "min": [
        -1.0,
        -1.0,
        -1.0
      ],
      "type": "VEC3"
    },
    {
      "bufferView": 1,
      "byteOffset": 326440,
      "componentType": 5126,
      "count": 2772,
      "max": [
        0.8237391710281372,
        0.6987390518188477
      ],
      "min": [
        0.41186952590942383,
        0.2831375002861023
      ],
      "type": "VEC2"
    },
    {
      "bufferView": 0,
      "byteOffset": 314424,
      "componentType": 5125,
      "count": 4104,
      "type": "SCALAR"
    },
    {
      "bufferView": 2,
      "byteOffset": 1045848,
      "componentType": 5126,
      "count": 4466,
      "max": [
        15.367118835449219,
        6.582919597625732,
        5.59515380859375
      ],
      "min": [
        0.10852070152759552,
        -8.675682067871094,
        -0.3020634949207306
      ],
      "type": "VEC3"
    },
    {
      "bufferView": 2,
      "byteOffset": 1099440,
      "componentType": 5126,
      "count": 4466,
      "max": [
        1.0,
        1.0,
        1.0
      ],
      "min": [
        -1.0,
        -1.0,
        -1.0
      ],
      "type": "VEC3"
    },
    {
      "bufferView": 1,
      "byteOffset": 348616,
      "componentType": 5126,
      "count": 4466,
      "max": [
        1.0,
        1.0005487203598022
      ],
      "min": [
        0.0,
        0.0
      ],
      "type": "VEC2"
    },
    {
      "bufferView": 0,
      "byteOffset": 330840,
      "componentType": 5125,
      "count": 6933,
      "type": "SCALAR"
    },
    {
      "bufferView": 2,
      "byteOffset": 1153032,
      "componentType": 5126,
      "count": 798,
      "max": [
        116.4277572631836,
        0.0,
        29.36846351623535
      ],
      "min": [
        -116.42771911621094,
        0.0,
        -29.36846351623535
      ],
      "type": "VEC3"
    },
    {
      "bufferView": 2,
      "byteOffset": 1162608,
      "componentType": 5126,
      "count": 798,
      "max": [
        0.0,
        1.0,
        0.0
      ],
      "min": [
        0.0,
        1.0,
        0.0
      ],
      "type": "VEC3"
    },
    {
      "bufferView": 1,
      "byteOffset": 384344,
      "componentType": 5126,
      "count": 798,
      "max": [
        1.0,
        0.0
      ],
      "min": [
        0.0,
        0.0
      ],
      "type": "VEC2"
    },
    {
      "bufferView": 0,
      "byteOffset": 358572,
      "componentType": 5125,
      "count": 2370,
      "type": "SCALAR"
    },
    {
      "bufferView": 2,
      "byteOffset": 1172184,
      "componentType": 5126,
      "count": 2124,
      "max": [
        11.941387176513672,
        3.226577043533325,
        4.6478705406188965
      ],
      "min": [
        3.3954386711120605,
        -5.319367408752441,
        -0.26948320865631104
      ],
      "type": "VEC3"
    },
    {
      "bufferView": 2,
      "byteOffset": 1197672,
      "componentType": 5126,
      "count": 2124,
      "max": [
        1.0,
        1.0,
        1.0
      ],
      "min": [
        -1.0,
        -1.0,
        -1.0
      ],
      "type": "VEC3"
    },
    {
      "bufferView": 1,
      "byteOffset": 390728,
      "componentType": 5126,
      "count": 2124,
      "max": [
        1.0,
        1.0
      ],
      "min": [
        0.0,
        0.0
      ],
      "type": "VEC2"
    },
    {
      "bufferView": 0,
      "byteOffset": 368052,
      "componentType": 5125,
      "count": 3252,
      "type": "SCALAR"
    },
    {
      "bufferView": 2,
      "byteOffset": 1223160,
      "componentType": 5126,
      "count": 1368,
      "max": [
        12.645223617553711,
        -11.377636909484863,
        1.7559137344360352
      ],
      "min": [
        7.19891881942749,
        -13.088129043579102,
        0.7641546726226807
      ],
      "type": "VEC3"
    },
    {
      "bufferView": 2,
      "byteOffset": 1239576,
      "componentType": 5126,
      "count": 1368,
      "max": [
        1.0,
        1.0,
        1.0
      ],
      "min": [
        -1.0,
        -1.0,
        -1.0
      ],
      "type": "VEC3"
    },
    {
      "bufferView": 1,
      "byteOffset": 407720,
      "componentType": 5126,
      "count": 1368,
      "max": [
        0.9803727269172668,
        0.9960803389549255
      ],
      "min": [
        0.0824950560927391,
        -0.00016439016326330602
      ],
      "type": "VEC2"
    },
    {
      "bufferView": 0,
      "byteOffset": 381060,
      "componentType": 5125,
      "count": 2028,
      "type": "SCALAR"
    },
    {
      "bufferView": 2,
      "byteOffset": 1255992,
      "componentType": 5126,
      "count": 683,
      "max": [
        11.443466186523438,
        -11.120192527770996,
        2.1674559116363525
      ],
      "min": [
        8.293985366821289,
        -13.290311813354492,
        0.8861429691314697
      ],
      "type": "VEC3"
    },
    {
      "bufferView": 2,
      "byteOffset": 1264188,
      "componentType": 5126,
      "count": 683,
      "max": [
        1.0,
        1.0,
        1.0
      ],
      "min": [
        -1.0,
        -1.0,
        -1.0
      ],
      "type": "VEC3"
    },
    {
      "bufferView": 1,
      "byteOffset": 418664,
      "componentType": 5126,
      "count": 683,
      "max": [
        0.8625238537788391,
        0.944378674030304
      ],
      "min": [
        2.1617273304741502e-08,
        -9.983273763225498e-09
      ],
      "type": "VEC2"
    },
    {
      "bufferView": 0,
      "byteOffset": 389172,
      "componentType": 5125,
      "count": 1008,
      "type": "SCALAR"
    },
    {
      "bufferView": 2,
      "byteOffset": 1272384,
      "componentType": 5126,
      "count": 84,
      "max": [
        11.046728134155273,
        -11.120192527770996,
        2.1674559116363525
      ],
      "min": [
        8.690723419189453,
        -13.290311813354492,
        0.8861429691314697
      ],
      "type": "VEC3"
    },
    {
      "bufferView": 2,
      "byteOffset": 1273392,
      "componentType": 5126,
      "count": 84,
      "max": [
        9.921821038005874e-05,
        1.0,
        1.0
      ],
      "min": [
        -1.3030914487899281e-05,
        -1.0,
        -1.0
      ],
      "type": "VEC3"
    },
    {
      "bufferView": 1,
      "byteOffset": 424128,
      "componentType": 5126,
      "count": 84,
      "max": [
        0.8625237941741943,
        0.6232812404632568
      ],
      "min": [
        2.3105487301222638e-08,
        0.015263265930116177
      ],
      "type": "VEC2"
    },
    {
      "bufferView": 0,
      "byteOffset": 393204,
      "componentType": 5125,
      "count": 132,
      "type": "SCALAR"
    },
    {
      "bufferView": 2,
      "byteOffset": 1274400,
      "componentType": 5126,
      "count": 1368,
      "max": [
        -6.272640705108643,
        -11.377632141113281,
        1.7559114694595337
      ],
      "min": [
        -11.718945503234863,
        -13.088125228881836,
        0.7641522884368896
      ],
      "type": "VEC3"
    },
    {
      "bufferView": 2,
      "byteOffset": 1290816,
      "componentType": 5126,
      "count": 1368,
      "max": [
        1.0,
        1.0,
        1.0
      ],
      "min": [
        -1.0,
        -1.0,
        -1.0
      ],
      "type": "VEC3"
    },
    {
      "bufferView": 1,
      "byteOffset": 424800,
      "componentType": 5126,
      "count": 1368,
      "max": [
        0.9803727269172668,
        0.9960803389549255
      ],
      "min": [
        0.08249501138925552,
        -0.00016434816643595695
      ],
      "type": "VEC2"
    },
    {
      "bufferView": 0,
      "byteOffset": 393732,
      "componentType": 5125,
      "count": 2028,
      "type": "SCALAR"
    },
    {
      "bufferView": 2,
      "byteOffset": 1307232,
      "componentType": 5126,
      "count": 682,
      "max": [
        -7.474398612976074,
        -11.120187759399414,
        2.1674535274505615
      ],
      "min": [
        -10.623879432678223,
        -13.29030704498291,
        0.886140763759613
      ],
      "type": "VEC3"
    },
    {
      "bufferView": 2,
      "byteOffset": 1315416,
      "componentType": 5126,
      "count": 682,
      "max": [
        1.0,
        1.0,
        1.0
      ],
      "min": [
        -1.0,
        -1.0,
        -1.0
      ],
      "type": "VEC3"
    },
    {
      "bufferView": 1,
      "byteOffset": 435744,
      "componentType": 5126,
      "count": 682,
      "max": [
        0.8625238537788391,
        0.944378674030304
      ],
      "min": [
        2.1617273304741502e-08,
        -9.983273763225498e-09
      ],
      "type": "VEC2"
    },
    {
      "bufferView": 0,
      "byteOffset": 401844,
      "componentType": 5125,
      "count": 1008,
      "type": "SCALAR"
    },
    {
      "bufferView": 2,
      "byteOffset": 1323600,
      "componentType": 5126,
      "count": 84,
      "max": [
        -7.871136665344238,
        -11.120187759399414,
        2.1674535274505615
      ],
      "min": [
        -10.227141380310059,
        -13.29030704498291,
        0.886140763759613
      ],
      "type": "VEC3"
    },
    {
      "bufferView": 2,
      "byteOffset": 1324608,
      "componentType": 5126,
      "count": 84,
      "max": [
        8.682671614224091e-05,
        1.0,
        1.0
      ],
      "min": [
        -8.682654151925817e-05,
        -1.0,
        -1.0
      ],
      "type": "VEC3"
    },
    {
      "bufferView": 1,
      "byteOffset": 441200,
      "componentType": 5126,
      "count": 84,
      "max": [
        0.8625237941741943,
        0.6232812404632568
      ],
      "min": [
        2.3105487301222638e-08,
        0.015263265930116177
      ],
      "type": "VEC2"
    },
    {
      "bufferView": 0,
      "byteOffset": 405876,
      "componentType": 5125,
      "count": 132,
      "type": "SCALAR"
    },
    {
      "bufferView": 2,
      "byteOffset": 1325616,
      "componentType": 5126,
      "count": 357,
      "max": [
        57.78763961791992,
        0.0,
        29.368465423583984
      ],
      "min": [
        -57.787723541259766,
        0.0,
        -29.368459701538086
      ],
      "type": "VEC3"
    },
    {
      "bufferView": 2,
      "byteOffset": 1329900,
      "componentType": 5126,
      "count": 357,
      "max": [
        0.0,
        1.0,
        0.0
      ],
      "min": [
        0.0,
        1.0,
        0.0
      ],
      "type": "VEC3"
    },
    {
      "bufferView": 1,
      "byteOffset": 441872,
      "componentType": 5126,
      "count": 357,
      "max": [
        1.0,
        0.0
      ],
      "min": [
        0.0,
        0.0
      ],
      "type": "VEC2"
    },
    {
      "bufferView": 0,
      "byteOffset": 406404,
      "componentType": 5125,
      "count": 1059,
      "type": "SCALAR"
    },
    {
      "bufferView": 2,
      "byteOffset": 1334184,
      "componentType": 5126,
      "count": 357,
      "max": [
        57.78763961791992,
        0.0,
        29.368465423583984
      ],
      "min": [
        -57.787723541259766,
        0.0,
        -29.368459701538086
      ],
      "type": "VEC3"
    },
    {
      "bufferView": 2,
      "byteOffset": 1338468,
      "componentType": 5126,
      "count": 357,
      "max": [
        0.0,
        1.0,
        0.0
      ],
      "min": [
        0.0,
        1.0,
        0.0
      ],
      "type": "VEC3"
    },
    {
      "bufferView": 1,
      "byteOffset": 444728,
      "componentType": 5126,
      "count": 357,
      "max": [
        1.0,
        0.0
      ],
      "min": [
        0.0,
        0.0
      ],
      "type": "VEC2"
    },
    {
      "bufferView": 0,
      "byteOffset": 410640,
      "componentType": 5125,
      "count": 1059,
      "type": "SCALAR"
    },
    {
      "bufferView": 2,
      "byteOffset": 1342752,
      "componentType": 5126,
      "count": 1033,
      "max": [
        12.799742698669434,
        -19.90652084350586,
        2.0999863147735596
      ],
      "min": [
        -12.04931926727295,
        -22.30742645263672,
        0.6353886723518372
      ],
      "type": "VEC3"
    },
    {
      "bufferView": 2,
      "byteOffset": 1355148,
      "componentType": 5126,
      "count": 1033,
      "max": [
        0.9956161975860596,
        0.9956791996955872,
        0.9974421262741089
      ],
      "min": [
        -0.99561607837677,
        -0.995679497718811,
        -0.9974420070648193
      ],
      "type": "VEC3"
    },
    {
      "bufferView": 1,
      "byteOffset": 447584,
      "componentType": 5126,
      "count": 1033,
      "max": [
        1.0,
        1.0
      ],
      "min": [
        0.0,
        0.010112911462783813
      ],
      "type": "VEC2"
    },
    {
      "bufferView": 0,
      "byteOffset": 414876,
      "componentType": 5125,
      "count": 3048,
      "type": "SCALAR"
    },
    {
      "bufferView": 2,
      "byteOffset": 1367544,
      "componentType": 5126,
      "count": 1558,
      "max": [
        -4.268153190612793,
        51.629669189453125,
        5.0458455085754395
      ],
      "min": [
        -9.328577995300293,
        29.680330276489258,
        -1.4579296112060547
      ],
      "type": "VEC3"
    },
    {
      "bufferView": 2,
      "byteOffset": 1386240,
      "componentType": 5126,
      "count": 1558,
      "max": [
        1.0,
        1.0,
        1.0
      ],
      "min": [
        -1.0,
        -1.0,
        -1.0
      ],
      "type": "VEC3"
    },
    {
      "bufferView": 1,
      "byteOffset": 455848,
      "componentType": 5126,
      "count": 1558,
      "max": [
        0.875,
        1.0
      ],
      "min": [
        0.0,
        0.0
      ],
      "type": "VEC2"
    },
    {
      "bufferView": 0,
      "byteOffset": 427068,
      "componentType": 5125,
      "count": 4173,
      "type": "SCALAR"
    },
    {
      "bufferView": 2,
      "byteOffset": 1404936,
      "componentType": 5126,
      "count": 2380,
      "max": [
        -1.603841781616211,
        59.79364013671875,
        9.803506851196289
      ],
      "min": [
        -11.98217487335205,
        40.154518127441406,
        -0.5748335123062134
      ],
      "type": "VEC3"
    },
    {
      "bufferView": 2,
      "byteOffset": 1433496,
      "componentType": 5126,
      "count": 2380,
      "max": [
        0.9979398846626282,
        1.0,
        1.0
      ],
      "min": [
        -0.9979398846626282,
        -1.0,
        -1.0
      ],
      "type": "VEC3"
    },
    {
      "bufferView": 1,
      "byteOffset": 468312,
      "componentType": 5126,
      "count": 2380,
      "max": [
        0.5706050395965576,
        0.7767167091369629
      ],
      "min": [
        0.5489935874938965,
        0.7420855760574341
      ],
      "type": "VEC2"
    },
    {
      "bufferView": 0,
      "byteOffset": 443760,
      "componentType": 5125,
      "count": 3636,
      "type": "SCALAR"
    },
    {
      "bufferView": 2,
      "byteOffset": 1462056,
      "componentType": 5126,
      "count": 163,
      "max": [
        104.30011749267578,
        0.0,
        34.40003204345703
      ],
      "min": [
        -104.29988861083984,
        0.0,
        -34.39997482299805
      ],
      "type": "VEC3"
    },
    {
      "bufferView": 2,
      "byteOffset": 1464012,
      "componentType": 5126,
      "count": 163,
      "max": [
        0.0,
        1.0,
        0.0
      ],
      "min": [
        0.0,
        1.0,
        0.0
      ],
      "type": "VEC3"
    },
    {
      "bufferView": 1,
      "byteOffset": 487352,
      "componentType": 5126,
      "count": 163,
      "max": [
        1.0,
        0.0
      ],
      "min": [
        0.0,
        0.0
      ],
      "type": "VEC2"
    },
    {
      "bufferView": 0,
      "byteOffset": 458304,
      "componentType": 5125,
      "count": 483,
      "type": "SCALAR"
    },
    {
      "bufferView": 2,
      "byteOffset": 1465968,
      "componentType": 5126,
      "count": 178,
      "max": [
        72.69996643066406,
        0.0,
        41.500003814697266
      ],
      "min": [
        -72.7000503540039,
        0.0,
        -41.500003814697266
      ],
      "type": "VEC3"
    },
    {
      "bufferView": 2,
      "byteOffset": 1468104,
      "componentType": 5126,
      "count": 178,
      "max": [
        0.0,
        1.0,
        0.0
      ],
      "min": [
        0.0,
        1.0,
        0.0
      ],
      "type": "VEC3"
    },
    {
      "bufferView": 1,
      "byteOffset": 488656,
      "componentType": 5126,
      "count": 178,
      "max": [
        1.0,
        0.0
      ],
      "min": [
        0.0,
        0.0
      ],
      "type": "VEC2"
    },
    {
      "bufferView": 0,
      "byteOffset": 460236,
      "componentType": 5125,
      "count": 534,
      "type": "SCALAR"
    },
    {
      "bufferView": 2,
      "byteOffset": 1470240,
      "componentType": 5126,
      "count": 182,
      "max": [
        103.64999389648438,
        0.0,
        34.999961853027344
      ],
      "min": [
        -103.65000915527344,
        0.0,
        -35.00004577636719
      ],
      "type": "VEC3"
    },
    {
      "bufferView": 2,
      "byteOffset": 1472424,
      "componentType": 5126,
      "count": 182,
      "max": [
        0.0,
        1.0,
        0.0
      ],
      "min": [
        0.0,
        1.0,
        0.0
      ],
      "type": "VEC3"
    },
    {
      "bufferView": 1,
      "byteOffset": 490080,
      "componentType": 5126,
      "count": 182,
      "max": [
        1.0,
        0.0
      ],
      "min": [
        0.0,
        0.0
      ],
      "type": "VEC2"
    },
    {
      "bufferView": 0,
      "byteOffset": 462372,
      "componentType": 5125,
      "count": 528,
      "type": "SCALAR"
    },
    {
      "bufferView": 2,
      "byteOffset": 1474608,
      "componentType": 5126,
      "count": 166,
      "max": [
        108.75000762939453,
        0.0,
        35.000057220458984
      ],
      "min": [
        -108.75000762939453,
        0.0,
        -34.99995040893555
      ],
      "type": "VEC3"
    },
    {
      "bufferView": 2,
      "byteOffset": 1476600,
      "componentType": 5126,
      "count": 166,
      "max": [
        0.0,
        1.0,
        0.0
      ],
      "min": [
        0.0,
        1.0,
        0.0
      ],
      "type": "VEC3"
    },
    {
      "bufferView": 1,
      "byteOffset": 491536,
      "componentType": 5126,
      "count": 166,
      "max": [
        1.0,
        0.0
      ],
      "min": [
        0.0,
        0.0
      ],
      "type": "VEC2"
    },
    {
      "bufferView": 0,
      "byteOffset": 464484,
      "componentType": 5125,
      "count": 486,
      "type": "SCALAR"
    },
    {
      "bufferView": 2,
      "byteOffset": 1478592,
      "componentType": 5126,
      "count": 203,
      "max": [
        98.74999237060547,
        0.0,
        34.999961853027344
      ],
      "min": [
        -98.75001525878906,
        0.0,
        -35.00004577636719
      ],
      "type": "VEC3"
    },
    {
      "bufferView": 2,
      "byteOffset": 1481028,
      "componentType": 5126,
      "count": 203,
      "max": [
        0.0,
        1.0,
        0.0
      ],
      "min": [
        0.0,
        1.0,
        0.0
      ],
      "type": "VEC3"
    },
    {
      "bufferView": 1,
      "byteOffset": 492864,
      "componentType": 5126,
      "count": 203,
      "max": [
        1.0,
        0.0
      ],
      "min": [
        0.0,
        0.0
      ],
      "type": "VEC2"
    },
    {
      "bufferView": 0,
      "byteOffset": 466428,
      "componentType": 5125,
      "count": 591,
      "type": "SCALAR"
    },
    {
      "bufferView": 2,
      "byteOffset": 1483464,
      "componentType": 5126,
      "count": 8264,
      "max": [
        411.1000671386719,
        3.0,
        45.60000991821289
      ],
      "min": [
        -411.1000061035156,
        -3.0,
        -45.599998474121094
      ],
      "type": "VEC3"
    },
    {
      "bufferView": 2,
      "byteOffset": 1582632,
      "componentType": 5126,
      "count": 8264,
      "max": [
        1.0,
        1.0,
        1.0
      ],
      "min": [
        -1.0,
        -1.0,
        -1.0
      ],
      "type": "VEC3"
    },
    {
      "bufferView": 1,
      "byteOffset": 494488,
      "componentType": 5126,
      "count": 8264,
      "max": [
        1.0,
        1.0
      ],
      "min": [
        0.0,
        0.0
      ],
      "type": "VEC2"
    },
    {
      "bufferView": 0,
      "byteOffset": 468792,
      "componentType": 5125,
      "count": 15876,
      "type": "SCALAR"
    }
  ],
  "asset": {
    "extras": {
      "author": "Veer AI (https://sketchfab.com/veer_ai)",
      "license": "CC-BY-4.0 (http://creativecommons.org/licenses/by/4.0/)",
      "source": "https://sketchfab.com/3d-models/ir-sensor-module-for-arduino-projects-3d-model-6ad4f3afb83940fea95cd3846aa68a18",
      "title": "IR Sensor Module for Arduino Projects | 3D Model"
    },
    "generator": "Sketchfab-16.60.0",
    "version": "2.0"
  },
  "bufferViews": [
    {
      "buffer": 0,
      "byteLength": 532296,
      "name": "floatBufferViews",
      "target": 34963
    },
    {
      "buffer": 0,
      "byteLength": 560600,
      "byteOffset": 532296,
      "byteStride": 8,
      "name": "floatBufferViews",
      "target": 34962
    },
    {
      "buffer": 0,
      "byteLength": 1681800,
      "byteOffset": 1092896,
      "byteStride": 12,
      "name": "floatBufferViews",
      "target": 34962
    }
  ],
  "buffers": [
    {
      "byteLength": 2774696,
      "uri": "scene.bin"
    }
  ],
  "extensionsRequired": [
    "KHR_materials_pbrSpecularGlossiness"
  ],
  "extensionsUsed": [
    "KHR_materials_pbrSpecularGlossiness"
  ],
  "materials": [
    {
      "doubleSided": true,
      "extensions": {
        "KHR_materials_pbrSpecularGlossiness": {
          "diffuseFactor": [
            1.0,
            1.0,
            1.0,
            1.0
          ],
          "glossinessFactor": 0.4,
          "specularFactor": [
            0.0,
            0.0,
            0.0
          ]
        }
      },
      "name": "Text__0"
    },
    {
      "doubleSided": true,
      "extensions": {
        "KHR_materials_pbrSpecularGlossiness": {
          "diffuseFactor": [
            0.481376,
            0.383869,
            0.389589,
            1.0
          ],
          "glossinessFactor": 0.11852146683935964,
          "specularFactor": [
            0.0,
            0.0,
            0.0
          ]
        }
      },
      "name": "ICPins"
    },
    {
      "doubleSided": true,
      "extensions": {
        "KHR_materials_pbrSpecularGlossiness": {
          "diffuseFactor": [
            0.0,
            0.2873552790816431,
            0.32778500000000005,
            1.0
          ],
          "glossinessFactor": 0.04158847165459609,
          "specularFactor": [
            0.0,
            0.0,
            0.0
          ]
        }
      },
      "name": "Material.001"
    },
    {
      "doubleSided": true,
      "extensions": {
        "KHR_materials_pbrSpecularGlossiness": {
          "diffuseFactor": [
            0.8,
            0.8,
            0.8,
            1.0
          ],
          "glossinessFactor": 0.1788854381999832,
          "specularFactor": [
            0.0,
            0.0,
            0.0
          ]
        }
      },
      "name": "Text"
    },
    {
      "doubleSided": true,
      "extensions": {
        "KHR_materials_pbrSpecularGlossiness": {
          "diffuseFactor": [
            0.0284264,
            0.0262418,
            0.0356018,
            1.0
          ],
          "glossinessFactor": 0.7891875949560143,
          "specularFactor": [
            0.15152157405271485,
            0.15152157405271485,
            0.15152157405271485
          ]
        }
      },
      "name": "Black"
    },
    {
      "doubleSided": true,
      "extensions": {
        "KHR_materials_pbrSpecularGlossiness": {
          "diffuseFactor": [
            0.8,
            0.8,
            0.8,
            1.0
          ],
          "glossinessFactor": 0.21330305605496747,
          "specularFactor": [
            0.0,
            0.0,
            0.0
          ]
        }
      },
      "name": "WhiteMetalicStrips"
    },
    {
      "doubleSided": true,
      "extensions": {
        "KHR_materials_pbrSpecularGlossiness": {
          "diffuseFactor": [
            0.514908,
            0.198068,
            0.0886537,
            1.0
          ],
          "glossinessFactor": 0.06431183151269357,
          "specularFactor": [
            0.0,
            0.0,
            0.0
          ]
        }
      },
      "name": "Orange"
    },
    {
      "doubleSided": true,
      "extensions": {
        "KHR_materials_pbrSpecularGlossiness": {
          "diffuseFactor": [
            0.0,
            0.226962,
            0.327785,
            1.0
          ],
          "glossinessFactor": 0.04158847165459609,
          "specularFactor": [
            0.0,
            0.0,
            0.0
          ]
        }
      },
      "name": "PotentoBlue"
    },
    {
      "doubleSided": true,
      "extensions": {
        "KHR_materials_pbrSpecularGlossiness": {
          "diffuseFactor": [
            0.142685,
            0.142685,
            0.142685,
            1.0
          ],
          "glossinessFactor": 0.0,
          "specularFactor": [
            0.0,
            0.0,
            0.0
          ]
        }
      },
      "name": "TextGray"
    },
    {
      "doubleSided": true,
      "extensions": {
        "KHR_materials_pbrSpecularGlossiness": {
          "diffuseFactor": [
            0.8,
            0.8,
            0.8,
            1.0
          ],
          "glossinessFactor": 0.19595917942265426,
          "specularFactor": [
            0.0,
            0.0,
            0.0
          ]
        }
      },
      "name": "material"
    },
    {
      "alphaMode": "BLEND",
      "doubleSided": true,
      "extensions": {
        "KHR_materials_pbrSpecularGlossiness": {
          "diffuseFactor": [
            0.8,
            0.8,
            0.8,
            0.20010565183582338
          ],
          "glossinessFactor": 1.0,
          "specularFactor": [
            0.10293749626960633,
            0.10293749626960633,
            0.10293749626960633
          ]
        }
      },
      "name": "Material.002"
    }
  ],
  "meshes": [
    {
      "name": "MalePins_ICPins_0",
      "primitives": [
        {
          "attributes": {
            "NORMAL": 1,
            "POSITION": 0,
            "TEXCOORD_0": 2
          },
          "indices": 3,
          "material": 1,
          "mode": 4
        }
      ]
    },
    {
      "name": "IR Sensor_Material.001_0",
      "primitives": [
        {
          "attributes": {
            "NORMAL": 5,
            "POSITION": 4,
            "TEXCOORD_0": 6
          },
          "indices": 7,
          "material": 2,
          "mode": 4
        }
      ]
    },
    {
      "name": "IR Sensor_Text_0",
      "primitives": [
        {
          "attributes": {
            "NORMAL": 9,
            "POSITION": 8,
            "TEXCOORD_0": 10
          },
          "indices": 11,
          "material": 3,
          "mode": 4
        }
      ]
    },
    {
      "name": "Receiver_Black_0",
      "primitives": [
        {
          "attributes": {
            "NORMAL": 13,
            "POSITION": 12,
            "TEXCOORD_0": 14
          },
          "indices": 15,
          "material": 4,
          "mode": 4
        }
      ]
    },
    {
      "name": "Receiver_ICPins_0",
      "primitives": [
        {
          "attributes": {
            "NORMAL": 17,
            "POSITION": 16,
            "TEXCOORD_0": 18
          },
          "indices": 19,
          "material": 1,
          "mode": 4
        }
      ]
    },
    {
      "name": "OC_Capacitor_ICPins_0",
      "primitives": [
        {
          "attributes": {
            "NORMAL": 21,
            "POSITION": 20,
            "TEXCOORD_0": 22
          },
          "indices": 23,
          "material": 1,
          "mode": 4
        }
      ]
    },
    {
      "name": "OC_Capacitor_WhiteMetalicStrips_0",
      "primitives": [
        {
          "attributes": {
            "NORMAL": 25,
            "POSITION": 24,
            "TEXCOORD_0": 26
          },
          "indices": 27,
          "material": 5,
          "mode": 4
        }
      ]
    },
    {
      "name": "OC_Capacitor_Orange_0",
      "primitives": [
        {
          "attributes": {
            "NORMAL": 29,
            "POSITION": 28,
            "TEXCOORD_0": 30
          },
          "indices": 31,
          "material": 6,
          "mode": 4
        }
      ]
    },
    {
      "name": "LM393_IC_Black_0",
      "primitives": [
        {
          "attributes": {
            "NORMAL": 33,
            "POSITION": 32,
            "TEXCOORD_0": 34
          },
          "indices": 35,
          "material": 4,
          "mode": 4
        }
      ]
    },
    {
      "name": "LM393_IC_ICPins_0",
      "primitives": [
        {
          "attributes": {
            "NORMAL": 37,
            "POSITION": 36,
            "TEXCOORD_0": 38
          },
          "indices": 39,
          "material": 1,
          "mode": 4
        }
      ]
    },
    {
      "name": "Text__0",
      "primitives": [
        {
          "attributes": {
            "NORMAL": 41,
            "POSITION": 40,
            "TEXCOORD_0": 42
          },
          "indices": 43,
          "material": 0,
          "mode": 4
        }
      ]
    },
    {
      "name": "Text.001__0",
      "primitives": [
        {
          "attributes": {
            "NORMAL": 45,
            "POSITION": 44,
            "TEXCOORD_0": 46
          },
          "indices": 47,
          "material": 0,
          "mode": 4
        }
      ]
    },
    {
      "name": "Text.002__0",
      "primitives": [
        {
          "attributes": {
            "NORMAL": 49,
            "POSITION": 48,
            "TEXCOORD_0": 50
          },
          "indices": 51,
          "material": 0,
          "mode": 4
        }
      ]
    },
    {
      "name": "BC_Capacitor_ICPins_0",
      "primitives": [
        {
          "attributes": {
            "NORMAL": 53,
            "POSITION": 52,
            "TEXCOORD_0": 54
          },
          "indices": 55,
          "material": 1,
          "mode": 4
        }
      ]
    },
    {
      "name": "BC_Capacitor_WhiteMetalicStrips_0",
      "primitives": [
        {
          "attributes": {
            "NORMAL": 57,
            "POSITION": 56,
            "TEXCOORD_0": 58
          },
          "indices": 59,
          "material": 5,
          "mode": 4
        }
      ]
    },
    {
      "name": "BC_Capacitor_Black_0",
      "primitives": [
        {
          "attributes": {
            "NORMAL": 61,
            "POSITION": 60,
            "TEXCOORD_0": 62
          },
          "indices": 63,
          "material": 4,
          "mode": 4
        }
      ]
    },
    {
      "name": "MalePins.001_Black_0",
      "primitives": [
        {
          "attributes": {
            "NORMAL": 65,
            "POSITION": 64,
            "TEXCOORD_0": 66
          },
          "indices": 67,
          "material": 4,
          "mode": 4
        }
      ]
    },
    {
      "name": "MalePins.001_ICPins_0",
      "primitives": [
        {
          "attributes": {
            "NORMAL": 69,
            "POSITION": 68,
            "TEXCOORD_0": 70
          },
          "indices": 71,
          "material": 1,
          "mode": 4
        }
      ]
    },
    {
      "name": "PotentioMeter_PotentoBlue_0",
      "primitives": [
        {
          "attributes": {
            "NORMAL": 73,
            "POSITION": 72,
            "TEXCOORD_0": 74
          },
          "indices": 75,
          "material": 7,
          "mode": 4
        }
      ]
    },
    {
      "name": "Text.003_TextGray_0",
      "primitives": [
        {
          "attributes": {
            "NORMAL": 77,
            "POSITION": 76,
            "TEXCOORD_0": 78
          },
          "indices": 79,
          "material": 8,
          "mode": 4
        }
      ]
    },
    {
      "name": "PotentioMeter.001_ICPins_0",
      "primitives": [
        {
          "attributes": {
            "NORMAL": 81,
            "POSITION": 80,
            "TEXCOORD_0": 82
          },
          "indices": 83,
          "material": 1,
          "mode": 4
        }
      ]
    },
    {
      "name": "BC_Capacitor.001_ICPins_0",
      "primitives": [
        {
          "attributes": {
            "NORMAL": 85,
            "POSITION": 84,
            "TEXCOORD_0": 86
          },
          "indices": 87,
          "material": 1,
          "mode": 4
        }
      ]
    },
    {
      "name": "BC_Capacitor.001_WhiteMetalicStrips_0",
      "primitives": [
        {
          "attributes": {
            "NORMAL": 89,
            "POSITION": 88,
            "TEXCOORD_0": 90
          },
          "indices": 91,
          "material": 5,
          "mode": 4
        }
      ]
    },
    {
      "name": "BC_Capacitor.001_Black_0",
      "primitives": [
        {
          "attributes": {
            "NORMAL": 93,
            "POSITION": 92,
            "TEXCOORD_0": 94
          },
          "indices": 95,
          "material": 4,
          "mode": 4
        }
      ]
    },
    {
      "name": "BC_Capacitor.002_ICPins_0",
      "primitives": [
        {
          "attributes": {
            "NORMAL": 97,
            "POSITION": 96,
            "TEXCOORD_0": 98
          },
          "indices": 99,
          "material": 1,
          "mode": 4
        }
      ]
    },
    {
      "name": "BC_Capacitor.002_WhiteMetalicStrips_0",
      "primitives": [
        {
          "attributes": {
            "NORMAL": 101,
            "POSITION": 100,
            "TEXCOORD_0": 102
          },
          "indices": 103,
          "material": 5,
          "mode": 4
        }
      ]
    },
    {
      "name": "BC_Capacitor.002_Black_0",
      "primitives": [
        {
          "attributes": {
            "NORMAL": 105,
            "POSITION": 104,
            "TEXCOORD_0": 106
          },
          "indices": 107,
          "material": 4,
          "mode": 4
        }
      ]
    },
    {
      "name": "Text.004__0",
      "primitives": [
        {
          "attributes": {
            "NORMAL": 109,
            "POSITION": 108,
            "TEXCOORD_0": 110
          },
          "indices": 111,
          "material": 0,
          "mode": 4
        }
      ]
    },
    {
      "name": "Text.005__0",
      "primitives": [
        {
          "attributes": {
            "NORMAL": 113,
            "POSITION": 112,
            "TEXCOORD_0": 114
          },
          "indices": 115,
          "material": 0,
          "mode": 4
        }
      ]
    },
    {
      "name": "MalePins.002_LED_0",
      "primitives": [
        {
          "attributes": {
            "NORMAL": 117,
            "POSITION": 116,
            "TEXCOORD_0": 118
          },
          "indices": 119,
          "material": 9,
          "mode": 4
        }
      ]
    },
    {
      "name": "Transsmitter_ICPins_0",
      "primitives": [
        {
          "attributes": {
            "NORMAL": 121,
            "POSITION": 120,
            "TEXCOORD_0": 122
          },
          "indices": 123,
          "material": 1,
          "mode": 4
        }
      ]
    },
    {
      "name": "Transsmitter_Material.002_0",
      "primitives": [
        {
          "attributes": {
            "NORMAL": 125,
            "POSITION": 124,
            "TEXCOORD_0": 126
          },
          "indices": 127,
          "material": 10,
          "mode": 4
        }
      ]
    },
    {
      "name": "Text.006__0",
      "primitives": [
        {
          "attributes": {
            "NORMAL": 129,
            "POSITION": 128,
            "TEXCOORD_0": 130
          },
          "indices": 131,
          "material": 0,
          "mode": 4
        }
      ]
    },
    {
      "name": "Text.007__0",
      "primitives": [
        {
          "attributes": {
            "NORMAL": 133,
            "POSITION": 132,
            "TEXCOORD_0": 134
          },
          "indices": 135,
          "material": 0,
          "mode": 4
        }
      ]
    },
    {
      "name": "Text.008__0",
      "primitives": [
        {
          "attributes": {
            "NORMAL": 137,
            "POSITION": 136,
            "TEXCOORD_0": 138
          },
          "indices": 139,
          "material": 0,
          "mode": 4
        }
      ]
    },
    {
      "name": "Text.009__0",
      "primitives": [
        {
          "attributes": {
            "NORMAL": 141,
            "POSITION": 140,
            "TEXCOORD_0": 142
          },
          "indices": 143,
          "material": 0,
          "mode": 4
        }
      ]
    },
    {
      "name": "Text.010__0",
      "primitives": [
        {
          "attributes": {
            "NORMAL": 145,
            "POSITION": 144,
            "TEXCOORD_0": 146
          },
          "indices": 147,
          "material": 0,
          "mode": 4
        }
      ]
    },
    {
      "name": "Text.011__0",
      "primitives": [
        {
          "attributes": {
            "NORMAL": 149,
            "POSITION": 148,
            "TEXCOORD_0": 150
          },
          "indices": 151,
          "material": 0,
          "mode": 4
        }
      ]
    }
  ],
  "nodes": [
    {
      "children": [
        1
      ],
      "matrix": [
        1.0,
        0.0,
        0.0,
        0.0,
        0.0,
        2.220446049250313e-16,
        -1.0,
        0.0,
        0.0,
        1.0,
        2.220446049250313e-16,
        0.0,
        0.0,
        0.0,
        0.0,
        1.0
      ],
      "name": "Sketchfab_model"
    },
    {
      "children": [
        2
      ],
      "matrix": [
        0.009999999776482582,
        0.0,
        0.0,
        0.0,
        0.0,
        0.0,
        0.009999999776482582,
        0.0,
        0.0,
        -0.009999999776482582,
        0.0,
        0.0,
        0.0,
        0.0,
        0.0,
        1.0
      ],
      "name": "25e3eebec7b840ec89a612c2c21b81c2.fbx"
    },
    {
      "children": [
        3
      ],
      "name": "RootNode"
    },
    {
      "children": [
        4,
        6,
        9,
        12,
        16,
        19,
        21,
        23,
        25,
        29,
        32,
        34,
        36,
        38,
        42,
        46,
        48,
        50,
        52,
        55,
        57,
        59,
        61,
        63,
        65
      ],
      "name": "Empty"
    },
    {
      "children": [
        5
      ],
      "name": "MalePins"
    },
    {
      "mesh": 0,
      "name": "MalePins_ICPins_0"
    },
    {
      "children": [
        7,
        8
      ],
      "name": "IR Sensor"
    },
    {
      "mesh": 1,
      "name": "IR Sensor_Material.001_0"
    },
    {
      "mesh": 2,
      "name": "IR Sensor_Text_0"
    },
    {
      "children": [
        10,
        11
      ],
      "name": "Receiver"
    },
    {
      "mesh": 3,
      "name": "Receiver_Black_0"
    },
    {
      "mesh": 4,
      "name": "Receiver_ICPins_0"
    },
    {
      "children": [
        13,
        14,
        15
      ],
      "name": "OC_Capacitor"
    },
    {
      "mesh": 5,
      "name": "OC_Capacitor_ICPins_0"
    },
    {
      "mesh": 6,
      "name": "OC_Capacitor_WhiteMetalicStrips_0"
    },
    {
      "mesh": 7,
      "name": "OC_Capacitor_Orange_0"
    },
    {
      "children": [
        17,
        18
      ],
      "name": "LM393_IC"
    },
    {
      "mesh": 8,
      "name": "LM393_IC_Black_0"
    },
    {
      "mesh": 9,
      "name": "LM393_IC_ICPins_0"
    },
    {
      "children": [
        20
      ],
      "matrix": [
        -4.371140944077123e-10,
        -0.01000000443309543,
        5.960467114318743e-10,
        0.0,
        -2.8213009157102924e-09,
        5.960468352217965e-10,
        0.01000000443309504,
        0.0,
        -0.010000004433095046,
        4.371139262088495e-10,
        -2.8213009423556568e-09,
        0.0,
        -11.874064445495605,
        18.07653045654297,
        2.16745662689209,
        1.0
      ],
      "name": "Text"
    },
    {
      "mesh": 10,
      "name": "Text__0"
    },
    {
      "children": [
        22
      ],
      "matrix": [
        -4.371140944077123e-10,
        -0.01000000443309543,
        5.960467114318743e-10,
        0.0,
        -2.8213009157102924e-09,
        5.960468352217965e-10,
        0.01000000443309504,
        0.0,
        -0.010000004433095046,
        4.371139262088495e-10,
        -2.8213009423556568e-09,
        0.0,
        -5.950584411621094,
        18.021717071533203,
        2.1674580574035645,
        1.0
      ],
      "name": "Text.001"
    },
    {
      "mesh": 11,
      "name": "Text.001__0"
    },
    {
      "children": [
        24
      ],
      "matrix": [
        -4.371140944077123e-10,
        -0.01000000443309543,
        5.960467114318743e-10,
        0.0,
        -2.8213009157102924e-09,
        5.960468352217965e-10,
        0.01000000443309504,
        0.0,
        -0.010000004433095046,
        4.371139262088495e-10,
        -2.8213009423556568e-09,
        0.0,
        0.287343829870224,
        18.021717071533203,
        2.167459487915039,
        1.0
      ],
      "name": "Text.002"
    },
    {
      "mesh": 12,
      "name": "Text.002__0"
    },
    {
      "children": [
        26,
        27,
        28
      ],
      "name": "BC_Capacitor"
    },
    {
      "mesh": 13,
      "name": "BC_Capacitor_ICPins_0"
    },
    {
      "mesh": 14,
      "name": "BC_Capacitor_WhiteMetalicStrips_0"
    },
    {
      "mesh": 15,
      "name": "BC_Capacitor_Black_0"
    },
    {
      "children": [
        30,
        31
      ],
      "name": "MalePins.001"
    },
    {
      "mesh": 16,
      "name": "MalePins.001_Black_0"
    },
    {
      "mesh": 17,
      "name": "MalePins.001_ICPins_0"
    },
    {
      "children": [
        33
      ],
      "name": "PotentioMeter"
    },
    {
      "mesh": 18,
      "name": "PotentioMeter_PotentoBlue_0"
    },
    {
      "children": [
        35
      ],
      "matrix": [
        0.03302520141005263,
        3.9369103280475144e-09,
        1.2311052707269512e-08,
        0.0,
        -1.2311052065865155e-08,
        -5.3804897173918155e-09,
        0.03302520141005243,
        0.0,
        3.936912333772806e-09,
        -0.03302520141005449,
        -5.380488243445188e-09,
        0.0,
        -7.904405117034912,
        -0.7684547305107117,
        2.361964702606201,
        1.0
      ],
      "name": "Text.003"
    },
    {
      "mesh": 19,
      "name": "Text.003_TextGray_0"
    },
    {
      "children": [
        37
      ],
      "name": "PotentioMeter.001"
    },
    {
      "mesh": 20,
      "name": "PotentioMeter.001_ICPins_0"
    },
    {
      "children": [
        39,
        40,
        41
      ],
      "name": "BC_Capacitor.001"
    },
    {
      "mesh": 21,
      "name": "BC_Capacitor.001_ICPins_0"
    },
    {
      "mesh": 22,
      "name": "BC_Capacitor.001_WhiteMetalicStrips_0"
    },
    {
      "mesh": 23,
      "name": "BC_Capacitor.001_Black_0"
    },
    {
      "children": [
        43,
        44,
        45
      ],
      "name": "BC_Capacitor.002"
    },
    {
      "mesh": 24,
      "name": "BC_Capacitor.002_ICPins_0"
    },
    {
      "mesh": 25,
      "name": "BC_Capacitor.002_WhiteMetalicStrips_0"
    },
    {
      "mesh": 26,
      "name": "BC_Capacitor.002_Black_0"
    },
    {
      "children": [
        47
      ],
      "matrix": [
        -0.010000004433094695,
        3.894145499423224e-09,
        1.5149785036774538e-10,
        0.0,
        1.514956994946329e-10,
        -5.523353080973325e-09,
        0.01000000443309393,
        0.0,
        3.8941455831002055e-09,
        0.010000004433093172,
        5.523353021021254e-09,
        0.0,
        -9.061111450195313,
        -12.241189002990723,
        2.1674535274505615,
        1.0
      ],
      "name": "Text.004"
    },
    {
      "mesh": 27,
      "name": "Text.004__0"
    },
    {
      "children": [
        49
      ],
      "matrix": [
        -0.010000004433094695,
        3.894145499423224e-09,
        1.5149785036774538e-10,
        0.0,
        1.514956994946329e-10,
        -5.523353080973325e-09,
        0.01000000443309393,
        0.0,
        3.8941455831002055e-09,
        0.010000004433093172,
        5.523353021021254e-09,
        0.0,
        9.954837799072266,
        -12.241191864013672,
        2.1674561500549316,
        1.0
      ],
      "name": "Text.005"
    },
    {
      "mesh": 28,
      "name": "Text.005__0"
    },
    {
      "children": [
        51
      ],
      "name": "MalePins.002"
    },
    {
      "mesh": 29,
      "name": "MalePins.002_LED_0"
    },
    {
      "children": [
        53,
        54
      ],
      "name": "Transsmitter"
    },
    {
      "mesh": 30,
      "name": "Transsmitter_ICPins_0"
    },
    {
      "mesh": 31,
      "name": "Transsmitter_Material.002_0"
    },
    {
      "children": [
        56
      ],
      "matrix": [
        9.543459271789985e-10,
        0.012640695087611642,
        8.981754069460859e-17,
        0.0,
        -9.543459278806981e-10,
        -1.964758702694563e-17,
        0.012640695087611642,
        0.0,
        0.012640695087611606,
        -9.543459278806981e-10,
        9.543459271789985e-10,
        0.0,
        9.828079223632813,
        -20.7310848236084,
        1.111261248588562,
        1.0
      ],
      "name": "Text.006"
    },
    {
      "mesh": 32,
      "name": "Text.006__0"
    },
    {
      "children": [
        58
      ],
      "matrix": [
        9.543459271789985e-10,
        -0.012640695087611639,
        9.051924023128522e-17,
        0.0,
        -2.0594306365705767e-09,
        -6.736315552095644e-17,
        0.012640695087611509,
        0.0,
        -0.012640695087611474,
        -9.543459285823977e-10,
        -2.0594306400790745e-09,
        0.0,
        -9.225118637084961,
        -20.993671417236328,
        1.1112589836120605,
        1.0
      ],
      "name": "Text.007"
    },
    {
      "mesh": 33,
      "name": "Text.007__0"
    },
    {
      "children": [
        60
      ],
      "matrix": [
        0.018976481631396376,
        6.786518141012882e-09,
        4.811832883588751e-09,
        0.0,
        -4.811831777924233e-09,
        -3.0916630032267792e-09,
        0.01897648163139734,
        0.0,
        6.786518924960092e-09,
        -0.018976481631396737,
        -3.0916612798540042e-09,
        0.0,
        -7.92397403717041,
        -28.27069091796875,
        1.1112580299377441,
        1.0
      ],
      "name": "Text.008"
    },
    {
      "mesh": 34,
      "name": "Text.008__0"
    },
    {
      "children": [
        62
      ],
      "matrix": [
        0.018976481631396376,
        6.786518141012882e-09,
        4.811832883588751e-09,
        0.0,
        -4.811831777924233e-09,
        -3.0916630032267792e-09,
        0.01897648163139734,
        0.0,
        6.786518924960092e-09,
        -0.018976481631396737,
        -3.0916612798540042e-09,
        0.0,
        -1.7200665473937988,
        -28.270689010620117,
        1.1112587451934814,
        1.0
      ],
      "name": "Text.009"
    },
    {
      "mesh": 35,
      "name": "Text.009__0"
    },
    {
      "children": [
        64
      ],
      "matrix": [
        0.018976481631396376,
        6.786518141012882e-09,
        4.811832883588751e-09,
        0.0,
        -4.811831777924233e-09,
        -3.0916630032267792e-09,
        0.01897648163139734,
        0.0,
        6.786518924960092e-09,
        -0.018976481631396737,
        -3.0916612798540042e-09,
        0.0,
        3.9564127922058105,
        -28.27069091796875,
        1.1112594604492188,
        1.0
      ],
      "name": "Text.010"
    },
    {
      "mesh": 36,
      "name": "Text.010__0"
    },
    {
      "children": [
        66
      ],
      "matrix": [
        -0.03247803077101455,
        1.2647412128989972e-08,
        1.806955011824253e-09,
        0.0,
        -1.8069589820551093e-09,
        -1.0195388351628514e-08,
        -0.03247803077101542,
        0.0,
        -1.2647411561756412e-08,
        -0.03247803077101301,
        1.0195389065574094e-08,
        0.0,
        -0.2862001657485962,
        4.31989860534668,
        -1.2086926698684692,
        1.0
      ],
      "name": "Text.011"
    },
    {
      "mesh": 37,
      "name": "Text.011__0"
    }
  ],
  "scene": 0,
  "scenes": [
    {
      "name": "Sketchfab_Scene",
      "nodes": [
        0
      ]
    }
  ]
}
