{
  "accessors": [
    {
      "bufferView": 2,
      "componentType": 5126,
      "count": 65532,
      "max": [
        -0.03791993856430054,
        0.24899974465370178,
        0.5639829635620117
      ],
      "min": [
        -0.8214340806007385,
        -0.30985158681869507,
        0.419639527797699
      ],
      "type": "VEC3"
    },
    {
      "bufferView": 2,
      "byteOffset": 786384,
      "componentType": 5126,
      "count": 65532,
      "max": [
        0.9999951124191284,
        0.9999128580093384,
        1.0
      ],
      "min": [
        -0.9985347390174866,
        -0.9999791383743286,
        -1.0
      ],
      "type": "VEC3"
    },
    {
      "bufferView": 1,
      "componentType": 5126,
      "count": 65532,
      "max": [
        0.9997483491897583,
        0.9770498275756836
      ],
      "min": [
        0.000244140625,
        0.0002515508094802499
      ],
      "type": "VEC2"
    },
    {
      "bufferView": 1,
      "byteOffset": 524256,
      "componentType": 5126,
      "count": 65532,
      "max": [
        0.9997483491897583,
        0.9770498275756836
      ],
      "min": [
        0.000244140625,
        0.0002515508094802499
      ],
      "type": "VEC2"
    },
    {
      "bufferView": 0,
      "componentType": 5125,
      "count": 312948,
      "type": "SCALAR"
    },
    {
      "bufferView": 2,
      "byteOffset": 1572768,
      "componentType": 5126,
      "count": 65532,
      "max": [
        -0.2726789712905884,
        0.20550543069839478,
        0.5193275809288025
      ],
      "min": [
        -0.7279715538024902,
        -0.2396881878376007,
        0.4281731843948364
      ],
      "type": "VEC3"
    },
    {
      "bufferView": 2,
      "byteOffset": 2359152,
      "componentType": 5126,
      "count": 65532,
      "max": [
        0.9999770522117615,
        0.9459551572799683,
        0.9853711724281311
      ],
      "min": [
        -0.9999972581863403,
        -0.9999833703041077,
        -1.0
      ],
      "type": "VEC3"
    },
    {
      "bufferView": 1,
      "byteOffset": 1048512,
      "componentType": 5126,
      "count": 65532,
      "max": [
        0.994169294834137,
        0.9750778079032898
      ],
      "min": [
        0.000244140625,
        0.0002583457389846444
      ],
      "type": "VEC2"
    },
    {
      "bufferView": 1,
      "byteOffset": 1572768,
      "componentType": 5126,
      "count": 65532,
      "max": [
        0.994169294834137,
        0.9750778079032898
      ],
      "min": [
        0.000244140625,
        0.0002583457389846444
      ],
      "type": "VEC2"
    },
    {
      "bufferView": 0,
      "byteOffset": 1251792,
      "componentType": 5125,
      "count": 332601,
      "type": "SCALAR"
    },
    {
      "bufferView": 2,
      "byteOffset": 3145536,
      "componentType": 5126,
      "count": 65533,
      "max": [
        -0.28218162059783936,
        0.18188726902008057,
        0.5321230888366699
      ],
      "min": [
        -0.6756360530853271,
        -0.2797778844833374,
        0.42551955580711365
      ],
      "type": "VEC3"
    },
    {
      "bufferView": 2,
      "byteOffset": 3931932,
      "componentType": 5126,
      "count": 65533,
      "max": [
        0.9999978542327881,
        0.9866126179695129,
        0.9990649223327637
      ],
      "min": [
        -0.9999938607215881,
        -0.9999880194664001,
        -0.9999999403953552
      ],
      "type": "VEC3"
    },
    {
      "bufferView": 1,
      "byteOffset": 2097024,
      "componentType": 5126,
      "count": 65533,
      "max": [
        0.9994687438011169,
        0.9792479276657104
      ],
      "min": [
        0.000244140625,
        0.00024553074035793543
      ],
      "type": "VEC2"
    },
    {
      "bufferView": 1,
      "byteOffset": 2621288,
      "componentType": 5126,
      "count": 65533,
      "max": [
        0.9994687438011169,
        0.9792479276657104
      ],
      "min": [
        0.000244140625,
        0.00024553074035793543
      ],
      "type": "VEC2"
    },
    {
      "bufferView": 0,
      "byteOffset": 2582196,
      "componentType": 5125,
      "count": 316914,
      "type": "SCALAR"
    },
    {
      "bufferView": 2,
      "byteOffset": 4718328,
      "componentType": 5126,
      "count": 65532,
      "max": [
        -0.22947227954864502,
        0.24899974465370178,
        0.5639829635620117
      ],
      "min": [
        -0.8214382529258728,
        -0.2528495490550995,
        0.4213902950286865
      ],
      "type": "VEC3"
    },
    {
      "bufferView": 2,
      "byteOffset": 5504712,
      "componentType": 5126,
      "count": 65532,
      "max": [
        0.9999897480010986,
        0.9999463558197021,
        0.9976854920387268
      ],
      "min": [
        -0.9999982118606567,
        -0.999987006187439,
        -0.9999998807907104
      ],
      "type": "VEC3"
    },
    {
      "bufferView": 1,
      "byteOffset": 3145552,
      "componentType": 5126,
      "count": 65532,
      "max": [
        0.9997460246086121,
        0.9852373600006104
      ],
      "min": [
        0.000244140625,
        0.0002646638313308358
      ],
      "type": "VEC2"
    },
    {
      "bufferView": 1,
      "byteOffset": 3669808,
      "componentType": 5126,
      "count": 65532,
      "max": [
        0.9997460246086121,
        0.9852373600006104
      ],
      "min": [
        0.000244140625,
        0.0002646638313308358
      ],
      "type": "VEC2"
    },
    {
      "bufferView": 0,
      "byteOffset": 3849852,
      "componentType": 5125,
      "count": 273597,
      "type": "SCALAR"
    },
    {
      "bufferView": 2,
      "byteOffset": 6291096,
      "componentType": 5126,
      "count": 65534,
      "max": [
        -0.33020126819610596,
        0.24899974465370178,
        0.5639829635620117
      ],
      "min": [
        -0.8214340806007385,
        -0.2804301679134369,
        0.4249413013458252
      ],
      "type": "VEC3"
    },
    {
      "bufferView": 2,
      "byteOffset": 7077504,
      "componentType": 5126,
      "count": 65534,
      "max": [
        0.9999897480010986,
        0.9990133047103882,
        1.0
      ],
      "min": [
        -0.9999556541442871,
        -0.9999679923057556,
        -0.9999993443489075
      ],
      "type": "VEC3"
    },
    {
      "bufferView": 1,
      "byteOffset": 4194064,
      "componentType": 5126,
      "count": 65534,
      "max": [
        0.9997268915176392,
        0.9856877326965332
      ],
      "min": [
        0.000244140625,
        0.0002481533447280526
      ],
      "type": "VEC2"
    },
    {
      "bufferView": 1,
      "byteOffset": 4718336,
      "componentType": 5126,
      "count": 65534,
      "max": [
        0.9997268915176392,
        0.9856877326965332
      ],
      "min": [
        0.000244140625,
        0.0002481533447280526
      ],
      "type": "VEC2"
    },
    {
      "bufferView": 0,
      "byteOffset": 4944240,
      "componentType": 5125,
      "count": 314364,
      "type": "SCALAR"
    },
    {
      "bufferView": 2,
      "byteOffset": 7863912,
      "componentType": 5126,
      "count": 65532,
      "max": [
        -0.037968218326568604,
        0.24986857175827026,
        0.5639829635620117
      ],
      "min": [
        -0.8214340806007385,
        -0.30985158681869507,
        0.4260652959346771
      ],
      "type": "VEC3"
    },
    {
      "bufferView": 2,
      "byteOffset": 8650296,
      "componentType": 5126,
      "count": 65532,
      "max": [
        0.9999104142189026,
        0.9999940991401672,
        1.0
      ],
      "min": [
        -0.9999918937683105,
        -0.9999816417694092,
        -0.9999999403953552
      ],
      "type": "VEC3"
    },
    {
      "bufferView": 1,
      "byteOffset": 5242608,
      "componentType": 5126,
      "count": 65532,
      "max": [
        0.9997484683990479,
        0.9860838651657104
      ],
      "min": [
        0.000244140625,
        0.0002469612518325448
      ],
      "type": "VEC2"
    },
    {
      "bufferView": 1,
      "byteOffset": 5766864,
      "componentType": 5126,
      "count": 65532,
      "max": [
        0.9997484683990479,
        0.9860838651657104
      ],
      "min": [
        0.000244140625,
        0.0002469612518325448
      ],
      "type": "VEC2"
    },
    {
      "bufferView": 0,
      "byteOffset": 6201696,
      "componentType": 5125,
      "count": 276270,
      "type": "SCALAR"
    },
    {
      "bufferView": 2,
      "byteOffset": 9436680,
      "componentType": 5126,
      "count": 65532,
      "max": [
        -0.04037216305732727,
        0.19512933492660522,
        0.5351877808570862
      ],
      "min": [
        -0.2840431332588196,
        -0.21088531613349915,
        0.4195897579193115
      ],
      "type": "VEC3"
    },
    {
      "bufferView": 2,
      "byteOffset": 10223064,
      "componentType": 5126,
      "count": 65532,
      "max": [
        0.9999992847442627,
        0.9991334676742554,
        0.9995847344398499
      ],
      "min": [
        -0.9999591112136841,
        -0.9999914169311523,
        -0.9999998807907104
      ],
      "type": "VEC3"
    },
    {
      "bufferView": 1,
      "byteOffset": 6291120,
      "componentType": 5126,
      "count": 65532,
      "max": [
        0.9997243881225586,
        0.9890135526657104
      ],
      "min": [
        0.000244140625,
        0.0002557827392593026
      ],
      "type": "VEC2"
    },
    {
      "bufferView": 1,
      "byteOffset": 6815376,
      "componentType": 5126,
      "count": 65532,
      "max": [
        0.9997243881225586,
        0.9890135526657104
      ],
      "min": [
        0.000244140625,
        0.0002557827392593026
      ],
      "type": "VEC2"
    },
    {
      "bufferView": 0,
      "byteOffset": 7306776,
      "componentType": 5125,
      "count": 308523,
      "type": "SCALAR"
    },
    {
      "bufferView": 2,
      "byteOffset": 11009448,
      "componentType": 5126,
      "count": 57879,
      "max": [
        -0.03791993856430054,
        0.190861314535141,
        0.5639829635620117
      ],
      "min": [
        -0.4549608528614044,
        -0.2748696506023407,
        0.41895896196365356
      ],
      "type": "VEC3"
    },
    {
      "bufferView": 2,
      "byteOffset": 11703996,
      "componentType": 5126,
      "count": 57879,
      "max": [
        0.9999951124191284,
        0.9998698234558105,
        0.9984846711158752
      ],
      "min": [
        -0.9998177289962769,
        -0.9997749328613281,
        -0.9999998807907104
      ],
      "type": "VEC3"
    },
    {
      "bufferView": 1,
      "byteOffset": 7339632,
      "componentType": 5126,
      "count": 57879,
      "max": [
        0.9997434020042419,
        0.9873142242431641
      ],
      "min": [
        0.000244140625,
        0.0002455903450027108
      ],
      "type": "VEC2"
    },
    {
      "bufferView": 1,
      "byteOffset": 7802664,
      "componentType": 5126,
      "count": 57879,
      "max": [
        0.9997434020042419,
        0.9873142242431641
      ],
      "min": [
        0.000244140625,
        0.0002455903450027108
      ],
      "type": "VEC2"
    },
    {
      "bufferView": 0,
      "byteOffset": 8540868,
      "componentType": 5125,
      "count": 257451,
      "type": "SCALAR"
    }
  ],
  "asset": {
    "extras": {
      "author": "eerotiainen (https://sketchfab.com/eerotiainen)",
      "license": "CC-BY-4.0 (http://creativecommons.org/licenses/by/4.0/)",
      "source": "https://sketchfab.com/3d-models/lab-equipment-gloves-3519914b790d47d7a80abbf4ee7919bf",
      "title": "Lab Equipment Gloves"
    },
    "generator": "Sketchfab-14.77.0",
    "version": "2.0"
  },
  "bufferViews": [
    {
      "buffer": 0,
      "byteLength": 9570672,
      "name": "floatBufferViews",
      "target": 34963
    },
    {
      "buffer": 0,
      "byteLength": 8265696,
      "byteOffset": 9570672,
      "byteStride": 8,
      "name": "floatBufferViews",
      "target": 34962
    },
    {
      "buffer": 0,
      "byteLength": 12398544,
      "byteOffset": 17836368,
      "byteStride": 12,
      "name": "floatBufferViews",
      "target": 34962
    }
  ],
  "buffers": [
    {
      "byteLength": 30234912,
      "uri": "scene.bin"
    }
  ],
  "extensionsUsed": [
    "KHR_materials_unlit"
  ],
  "images": [
    {
      "uri": "textures/tex_u1_v1_baseColor.jpeg"
    }
  ],
  "materials": [
    {
      "doubleSided": true,
      "extensions": {
        "KHR_materials_unlit": {}
      },
      "name": "tex_u1_v1",
      "pbrMetallicRoughness": {
        "baseColorTexture": {
          "index": 0
        },
        "metallicFactor": 0.0
      }
    }
  ],
  "meshes": [
    {
      "name": "model_tex_u1_v1_0",
      "primitives": [
        {
          "attributes": {
            "NORMAL": 1,
            "POSITION": 0,
            "TEXCOORD_0": 2,
            "TEXCOORD_1": 3
          },
          "indices": 4,
          "material": 0,
          "mode": 4
        }
      ]
    },
    {
      "name": "model_tex_u1_v1_0",
      "primitives": [
        {
          "attributes": {
            "NORMAL": 6,
            "POSITION": 5,
            "TEXCOORD_0": 7,
            "TEXCOORD_1": 8
          },
          "indices": 9,
          "material": 0,
          "mode": 4
        }
      ]
    },
    {
      "name": "model_tex_u1_v1_0",
      "primitives": [
        {
          "attributes": {
            "NORMAL": 11,
            "POSITION": 10,
            "TEXCOORD_0": 12,
            "TEXCOORD_1": 13
          },
          "indices": 14,
          "material": 0,
          "mode": 4
        }
      ]
    },
    {
      "name": "model_tex_u1_v1_0",
      "primitives": [
        {
          "attributes": {
            "NORMAL": 16,
            "POSITION": 15,
            "TEXCOORD_0": 17,
            "TEXCOORD_1": 18
          },
          "indices": 19,
          "material": 0,
          "mode": 4
        }
      ]
    },
    {
      "name": "model_tex_u1_v1_0",
      "primitives": [
        {
          "attributes": {
            "NORMAL": 21,
            "POSITION": 20,
            "TEXCOORD_0": 22,
            "TEXCOORD_1": 23
          },
          "indices": 24,
          "material": 0,
          "mode": 4
        }
      ]
    },
    {
      "name": "model_tex_u1_v1_0",
      "primitives": [
        {
          "attributes": {
            "NORMAL": 26,
            "POSITION": 25,
            "TEXCOORD_0": 27,
            "TEXCOORD_1": 28
          },
          "indices": 29,
          "material": 0,
          "mode": 4
        }
      ]
    },
    {
      "name": "model_tex_u1_v1_0",
      "primitives": [
        {
          "attributes": {
            "NORMAL": 31,
            "POSITION": 30,
            "TEXCOORD_0": 32,
            "TEXCOORD_1": 33
          },
          "indices": 34,
          "material": 0,
          "mode": 4
        }
      ]
    },
    {
      "name": "model_tex_u1_v1_0",
      "primitives": [
        {
          "attributes": {
            "NORMAL": 36,
            "POSITION": 35,
            "TEXCOORD_0": 37,
            "TEXCOORD_1": 38
          },
          "indices": 39,
          "material": 0,
          "mode": 4
        }
      ]
    }
  ],
  "nodes": [
    {
      "children": [
        1
      ],
      "matrix": [
        1.0,
        0.0,
        0.0,
        0.0,
        0.0,
        2.220446049250313e-16,
        -1.0,
        0.0,
        0.0,
        1.0,
        2.220446049250313e-16,
        0.0,
        0.0,
        0.0,
        0.0,
        1.0
      ],
      "name": "Sketchfab_model"
    },
    {
      "children": [
        2
      ],
      "matrix": [
        1.0,
        0.0,
        0.0,
        0.0,
        0.0,
        -1.0,
        0.0,
        0.0,
        0.0,
        0.0,
        -1.0,
        0.0,
        0.0,
        0.0,
        0.0,
        1.0
      ],
      "name": "model.fbx"
    },
    {
      "children": [
        3
      ],
      "name": "RootNode"
    },
    {
      "children": [
        4,
        5,
        6,
        7,
        8,
        9,
        10,
        11
      ],
      "name": "model"
    },
    {
      "mesh": 0,
      "name": "model_tex_u1_v1_0"
    },
    {
      "mesh": 1,
      "name": "model_tex_u1_v1_0"
    },
    {
      "mesh": 2,
      "name": "model_tex_u1_v1_0"
    },
    {
      "mesh": 3,
      "name": "model_tex_u1_v1_0"
    },
    {
      "mesh": 4,
      "name": "model_tex_u1_v1_0"
    },
    {
      "mesh": 5,
      "name": "model_tex_u1_v1_0"
    },
    {
      "mesh": 6,
      "name": "model_tex_u1_v1_0"
    },
    {
      "mesh": 7,
      "name": "model_tex_u1_v1_0"
    }
  ],
  "samplers": [
    {
      "magFilter": 9729,
      "minFilter": 9987,
      "wrapS": 10497,
      "wrapT": 10497
    }
  ],
  "scene": 0,
  "scenes": [
    {
      "name": "Sketchfab_Scene",
      "nodes": [
        0
      ]
    }
  ],
  "textures": [
    {
      "sampler": 0,
      "source": 0
    }
  ]
}
